<svg xmlns="http://www.w3.org/2000/svg" viewBox="0 0 275.22 69.43"><defs><style>.cls-1{isolation:isolate;}.cls-2{fill:#fff;}.cls-3{mix-blend-mode:darken;}.cls-4{fill:#1d1c1a;stroke:#1d1c1a;stroke-width:0.61px;}.cls-4,.cls-5{stroke-linecap:round;stroke-linejoin:round;}.cls-5,.cls-6{fill:#483729;stroke:#483729;}.cls-5{stroke-width:0.35px;}.cls-6,.cls-8{stroke-miterlimit:10;}.cls-6{stroke-width:0.26px;}.cls-7{fill:#f7ce5d;}.cls-8{fill:none;stroke:#fff;stroke-width:0.45px;}</style></defs><g class="cls-1"><g id="Capa_2" data-name="Capa 2"><g id="Capa_1-2" data-name="Capa 1"><path class="cls-2" d="M38.49,32.91a6.46,6.46,0,0,0,.9.23h0l0,0s-.28-.12-.45-.71-3.29-16.51-3.32-16.67a1.47,1.47,0,0,1,.64-1.42c.17-.11.36-.2.55-.3l.18-.09a5.48,5.48,0,0,1,.61-.22l.25-.09c.25-.06.5-.12.77-.16l.15,0a7.44,7.44,0,0,1,1-.09H39.6a3.77,3.77,0,0,0-1-.35h0l-.38-.07h0l-.44,0h-.58a3.66,3.66,0,0,0-2.86,1.59.48.48,0,0,0-.06.51l3.49,17.37A1.54,1.54,0,0,0,38.49,32.91Zm.74.1h0Zm-.15-.23h0ZM37,13.92l.07,0Zm.87-.3.1,0Zm.9-.19.18,0ZM38,12.9h0Zm-.44,0h0Z"/><path class="cls-2" d="M46.84,11.75c0,.09.09.18.15.27a4.93,4.93,0,0,1,.53,1.26L49,22.72a7,7,0,0,1,1.11.34h0c0-.11-.18-1.1-1.78-10.48,0,0,0-.67-1.45-1.72a8,8,0,0,0-2.64-1.34h0C46.32,10.73,46.58,11.25,46.84,11.75Zm-.74-1h0Z"/><path class="cls-2" d="M50,34.85l-.06.07Z"/><path class="cls-2" d="M49.6,25.27h0s.53,3,.67,3.79a.65.65,0,0,0,0,.11c0,.12,0,.25,0,.4s0,.17,0,.27,0,.34,0,.52a2.64,2.64,0,0,1,0,.28q0,.33-.09.66l-.06.23a4.54,4.54,0,0,1-.21.69.42.42,0,0,0,0,.1,4.58,4.58,0,0,1-.46.85h0a4.92,4.92,0,0,1-.37.5v0c-.15.17-.31.35-.49.53l0,0c-.18.17-.39.36-.62.54l0,0c-.23.19-.49.38-.77.57l0,0A14.43,14.43,0,0,1,45,36.58l-.59.24-.32.13-.59.2-.27.08-.56.15-.16,0a12,12,0,0,1-2.68.28h-.93a9,9,0,0,1-.9,0h-.09l-.42,0H37.4a12.09,12.09,0,0,1-1.75-.31h0a.41.41,0,0,0-.14-.06h0s.07,0,.17.07l.07,0a7.9,7.9,0,0,0,.88.36l.11,0a9.58,9.58,0,0,0,.94.25l.36.07.41.06.17,0h0c.23,0,.46.05.7.06h.88a18.23,18.23,0,0,0,4.05-.49,13.8,13.8,0,0,0,2-.6l.07,0q.4-.15.78-.33l.09,0c.23-.11.45-.22.66-.34l.1,0,.15-.09-.06,0,.23-.14-.11.08.36-.23.1-.07c.17-.12.33-.23.48-.35l0,0,0,0h0l.11-.09h0c.14-.12.29-.24.42-.37l0,0,.28-.27,0,0,.14-.14,0,0a.23.23,0,0,0,.07-.07A6.66,6.66,0,0,0,51.67,32v-.13l-1-5.74L53,24.25h0l-1.57-.51Zm.74,5.24v0Zm-.12.89v0Zm-.53,1.41a.08.08,0,0,1,0,0A.08.08,0,0,0,49.69,32.81Zm-.3.48-.12.16Zm-.4.51c-.06.08-.13.15-.2.23C48.86,34,48.93,33.88,49,33.8Zm-.52.55-.27.24Zm-.65.57-.32.23ZM47,35.5l-.31.19Zm-1,.57-.07,0ZM43.91,37l-.08,0Zm-.91.28-.15.05Zm-.88.21-.07,0Zm-6.62-.18Zm5.07,1h0ZM43,38.07h0Zm-1.12.15-.23,0Zm3.72-.77.2-.06ZM46.92,37l.13-.06Zm3.82-3,0,0Z"/><path class="cls-2" d="M48.19,36.33l-.06,0Z"/><polygon class="cls-2" points="65.95 33.02 65.95 33.02 62.95 13.31 61.61 12.51 61.61 12.51 64.53 32.31 65.95 33.02"/><polygon class="cls-2" points="76.95 19.84 76.96 19.84 75.36 5.98 78.4 3.79 78.41 3.79 76.86 3.17 76.86 3.16 73.99 5.35 75.64 19.2 76.95 19.84"/><polygon class="cls-2" points="79.51 21.09 78.09 20.38 78.08 20.38 75.98 22.04 77.08 30.86 78.38 31.5 78.39 31.51 77.32 22.68 79.51 21.09 79.51 21.09"/><polygon class="cls-2" points="55.3 35.39 55.3 35.39 55.38 35.7 56.3 36.09 81.6 33.06 81.62 33.06 80.23 32.42 55.3 35.39"/><polygon class="cls-2" points="104.19 19.65 104.11 18.6 103.73 17.32 103.72 17.3 103.44 19.68 103.44 19.69 104.18 19.65 104.19 19.65"/><polygon class="cls-2" points="103.57 29.8 103.35 29.31 103.92 24.9 105.69 24.81 105.7 24.81 105.58 24.02 105.58 24.02 102.73 24.15 102.73 24.15 102.12 28.8 103.56 29.79 103.57 29.8"/><path class="cls-2" d="M117.45,29.84c-.09,0-8.62.38-11.44.55-3.32.2-13.32.91-13.42.92h0v.53l.48.28c.1,0,9.88-.7,13.12-.9,3-.18,11.92-.62,12-.62h0l0-.31Z"/><polygon class="cls-2" points="110.68 16.46 111.73 16.98 111.74 16.98 111.81 16.19 108.11 3.5 110.31 1.65 110.34 1.28 109.23 0.76 109.22 0.76 106.75 2.72 107.09 3.92 110.68 16.46"/><polygon class="cls-2" points="111.47 19.47 113.81 28.06 114.88 28.58 114.89 28.58 114.89 27.51 112.82 19.97 114.75 18.45 114.76 18.44 113.51 17.86 113.51 17.86 113.44 17.82 113.44 17.82 113.43 17.82 111.47 19.47"/><path class="cls-2" d="M131.62,29.47c-3.13,0-12.59.31-12.68.32h0l0,.27.8.48c.1,0,9.22-.25,12.24-.29s12.4-.05,12.49-.05h0V30l-.82-.54C143.58,29.41,134.6,29.42,131.62,29.47Z"/><polygon class="cls-2" points="141.97 28.32 142.01 19.44 143.86 18.28 143.86 17.75 143.06 17.23 143.06 17.23 140.79 18.66 140.78 27.54 141.97 28.31 141.97 28.32"/><polygon class="cls-2" points="140.81 1.87 140.79 15.8 142.01 16.58 142.02 16.58 142.08 2.64 144.72 1.03 144.72 0.53 143.87 0 140.81 1.87"/><polygon class="cls-2" points="129.45 28.38 129.46 28.39 129.04 8.63 127.83 7.7 127.83 7.69 128.28 27.66 129.45 28.38"/><path class="cls-2" d="M165.91,7.92h0L166,6.14a9.81,9.81,0,0,0-.86-1.57A4.21,4.21,0,0,0,163.28,3h0l0,0A4.54,4.54,0,0,1,165,7.08l-6.76.85h0v.44l.73.45Zm-1-2.56a.09.09,0,0,0,0-.05A.09.09,0,0,1,164.88,5.36Z"/><path class="cls-2" d="M153.29,11h0s0-2.87,0-3.61a1.63,1.63,0,0,1,.55-1.26c.48-.42,1.49-.86,3.6-.53h0a2.49,2.49,0,0,0-.5-.36l-.06,0L156.6,5l-.12,0a2.68,2.68,0,0,0-.34-.13l-.14,0a3.1,3.1,0,0,0-.46-.11l-.09,0a4.51,4.51,0,0,0-.65,0,4.93,4.93,0,0,0-.75.06,2.73,2.73,0,0,0-1.82.91h0a1.13,1.13,0,0,0-.24.62l0,3.5A2.47,2.47,0,0,0,153.29,11Zm3.07-5.52h0Zm-1.42.11-.15,0Zm-.37.11-.09,0Zm-.31.14h0Zm-.44.31a2.21,2.21,0,0,0-.25.3A2.21,2.21,0,0,1,153.82,6.12Zm-.31.4a1.26,1.26,0,0,0-.13.26A2.1,2.1,0,0,1,153.51,6.52Zm-.16.38a1.62,1.62,0,0,0,0,.19A1.62,1.62,0,0,1,153.35,6.9Zm1.83-1.39.19,0Zm.47,0h0Zm.65-.56h0Zm-.42-.13-.11,0Zm-.65-.11h0Z"/><polygon class="cls-2" points="158.71 12.27 158.8 14.3 159.69 14.84 159.7 14.84 159.64 12.93 158.72 12.27 158.71 12.27"/><path class="cls-2" d="M162.49,16.57l0,0,0,0c2.19,2,1.83,3.87,1.83,3.89l-.1,2.82a4.7,4.7,0,0,1-.42,1.87,6.27,6.27,0,0,1-.54.95c.08-.12.16-.24.23-.36a3.87,3.87,0,0,1-.24.37l0,0c-.09.13-.19.25-.3.38l0,0c-.11.13-.24.26-.37.39h0a8.09,8.09,0,0,1-3.16,1.8,15.54,15.54,0,0,1-7,.7,9.86,9.86,0,0,1-2.66-.72h0V29a17.8,17.8,0,0,0,5.69,1.34h1.12l.76-.05.24,0,.7-.1.25,0,.68-.15.24-.06.71-.22.17-.05a13.09,13.09,0,0,0,2.54-1.21,5.33,5.33,0,0,0,2.51-3.35l.23-4a3.67,3.67,0,0,0-1-2.75A10,10,0,0,0,162.49,16.57Zm-7.26,13h0Zm8.84-5.17.06-.24Zm.09-.38a.59.59,0,0,1,0-.13A.59.59,0,0,0,164.16,24Zm-.22.79c0,.11-.09.23-.14.35C163.85,25,163.9,24.92,163.94,24.81Zm.11-.35c0,.1-.06.21-.1.32C164,24.67,164,24.56,164.05,24.46Zm-.85,1.73-.24.31Zm-.36.45-.25.26Zm-.7.66.25-.21Zm-1.16.78.16-.09Zm.63-.38.22-.16Zm-7,1.9h0Zm-2.15-.13-.41-.06Zm1.38.12-.44,0Zm-.72,0-.45-.05Zm-2.4-.44.09,0Zm.36.1.22.05Zm.44.1.33.07Zm4.34,1.06h0Zm.86,0,.21,0Zm1-.09.12,0Zm.93-.16Z"/><polygon class="cls-2" points="155.12 18.29 155.13 18.29 153.93 17.47 151.36 17.5 151.36 17.5 151.35 17.94 151.89 18.3 155.12 18.29"/><path class="cls-2" d="M152,24.24c.35.29.81.62.81.62h0l.07-2.29-1.3-.91h0s0,1.19,0,1.54A1.17,1.17,0,0,0,152,24.24Zm-.31-.43,0,0Z"/><polygon class="cls-2" points="177.32 16.11 177.98 6.35 187.1 6.96 187.1 6.96 187.13 6.65 187.13 6.65 186.04 6.1 176.85 5.5 176.84 5.5 176.16 16.04 176.16 16.04 177.31 16.11 177.32 16.11"/><polygon class="cls-2" points="181.43 14.82 181.4 15.28 185.33 23.42 186.03 23.81 186.04 23.82 186.07 23.38 182.21 15.39 181.44 14.82 181.43 14.82"/><polygon class="cls-2" points="176.62 26.04 176.95 21.33 181.82 21.64 181.82 21.64 181.85 21.27 181.85 21.27 180.98 20.8 175.85 20.46 175.85 20.46 175.49 25.97 175.49 25.98 176.62 26.04 176.62 26.04"/><path class="cls-2" d="M185,24.93h0l0,.36,2.86,6c-.26,0-7.15-.53-9.46-.67-3.09-.19-12.43-.66-12.52-.67h0v.39l.69.43c.09,0,8.88.45,11.79.63,2.61.16,10.47.75,10.54.76h0l0-.19L186,25.65Z"/><polygon class="cls-2" points="190.54 8.74 191.43 9.23 191.43 9.23 191.46 8.96 188.22 2.4 187.29 1.77 187.28 1.77 187.31 2.15 190.54 8.74"/><polygon class="cls-2" points="202.22 19.64 203.78 5.87 206.62 4.51 206.68 3.92 205.98 3.38 205.98 3.38 202.67 4.92 201.12 18.79 202.21 19.64 202.22 19.64"/><polygon class="cls-2" points="201.22 28.01 201.87 22.56 203.84 21.59 203.92 20.97 203.24 20.43 203.23 20.43 200.79 21.63 200.06 27.89 200.05 27.89 201.22 28.01 201.22 28.01"/><path class="cls-2" d="M210,27.38h0l-.06.43,2.45,6c-.28,0-7.73-.93-10.23-1.19-3-.31-11.91-1.11-12-1.12h0l0,.27.84.59c.08,0,8.7.81,11.55,1.11,2.64.27,10.58,1.16,10.66,1.17h0l.07-.5L210.7,28Z"/><polygon class="cls-2" points="223.61 33.31 224.58 34.17 224.59 34.18 227.78 14.62 226.79 13.54 223.61 33.31"/><polygon class="cls-2" points="239.32 17.24 239.64 15.49 239.64 15.48 232.81 19.37 232.7 19.98 233.42 20.6 239.32 17.24"/><polygon class="cls-2" points="251.11 9.79 247.98 11 245.26 24.91 246.06 25.63 248.7 12.15 252.07 10.83 252.12 10.56 251.11 9.79 251.11 9.79"/><polygon class="cls-2" points="247.09 26.53 244.73 27.53 242.9 36.45 243.66 37.17 243.66 37.18 245.43 28.71 247.89 27.67 247.95 27.37 247.1 26.53 247.09 26.53"/><polygon class="cls-2" points="233.37 36.66 233.37 36.66 233.29 37.09 233.75 37.51 245.71 39.56 245.72 39.56 245.79 39.3 245.18 38.66 233.37 36.66"/><polygon class="cls-2" points="214.03 33.92 214.03 33.92 213.99 34.16 214.73 34.8 226.72 36.44 226.72 36.44 226.77 36.13 226.15 35.56 214.03 33.92"/><path class="cls-2" d="M271.74,30.23l.77.61h0l2.7-10.36a9.86,9.86,0,0,0-.68-2.1,7.77,7.77,0,0,0-1.73-2.15l0,0,0,0c2.15,3.1,1.33,4.62,1.32,4.63Zm2.44-11.14a3.74,3.74,0,0,1,.1,1.13A3.74,3.74,0,0,0,274.18,19.09Zm.09,1.24s0-.06,0-.1S274.27,20.3,274.27,20.33Z"/><path class="cls-2" d="M273.63,31.85l-2.58.85-1.27,4.72a16.11,16.11,0,0,1-1.36,1.91,2.66,2.66,0,0,1-.44.36h0l-.43.28-.16.09a4.77,4.77,0,0,1-.46.25l-.31.15-.51.21a4.09,4.09,0,0,1-.42.16L265,41l-.45.12a9.09,9.09,0,0,1-1,.19l-.27,0a14.39,14.39,0,0,1-1.53.12h-.37c-.21,0-.43,0-.64,0h0a19.59,19.59,0,0,1-6.86-1.85h0l-.07.3a9.18,9.18,0,0,0,1.25.8l0,0h0a14.19,14.19,0,0,0,2.57,1.08l.27.09.27.07.49.13.15,0,.67.13h0a15.53,15.53,0,0,0,2.55.22h.15c.24,0,.46,0,.69,0h.3l.65-.07.31,0,.64-.1.2,0c.38-.07.74-.16,1.1-.26l.2-.06.48-.16.49-.2.35-.15c.25-.12.48-.24.68-.36h0A7.12,7.12,0,0,0,269.79,40l.06,0a.91.91,0,0,1,.1-.1,3.38,3.38,0,0,0,.6-1.4l1.19-4.63,2.57-.86.08-.3-.75-.82Zm-5.44,7.69,0,0Zm-.38.28-.09,0Zm-.58.34-.09.05Zm-.75.37-.11,0Zm-.92.36-.15,0Zm-1.08.3-.25.05Zm-1.28.23-.31,0Zm-2.18.1h0Zm-.75-.05h0Zm-1.44-.19Zm.71.11Zm3.88,1.09h0Zm1-.12.19,0Zm2.07-.48.13-.05Z"/><path class="cls-2" d="M257.43,36l.47.37h0l.14-.33h0s-.24-.16,0-1S261.9,19,261.94,18.8a2.22,2.22,0,0,1,1.27-1c.75-.19,2.83-.13,3.46.41h0a5.22,5.22,0,0,0-2.57-1.45l-.38,0-.46,0c-.17,0-.31,0-.45,0h-.17l-.12,0-.33.08a.61.61,0,0,1,.13,0l-.24.06h0l-.14,0a2.35,2.35,0,0,0-.49.2c-.61.32-.56.72-.56.72l-4,17.15A1.56,1.56,0,0,0,257.43,36ZM265,17.06h0Zm1.42,1,0,0Zm-4.84-1,.26-.11Z"/><path class="cls-2" d="M262.09,16.88l.11,0Z"/><path class="cls-2" d="M24.94,17.56A3.33,3.33,0,0,0,24,16.18a7.11,7.11,0,0,0-3.15-1.95l-.07,0-.19,0h0c2.78,1.51,3.15,3.4,3.15,3.42l3.44,15.48s.5,2.22-1.73,4.72a11,11,0,0,1-1.93,1.68h0l-.48.32-.26.16-.26.15-.3.17-.21.12-.23.11-.29.15-.08,0a14.55,14.55,0,0,1-2.69,1C18,41.87,7,44.21,6.88,44.23h0l.16.44.59.18c.11,0,10.79-2.11,12.83-2.75a16.43,16.43,0,0,0,4.41-2,8.45,8.45,0,0,0,3.59-4.48,3.54,3.54,0,0,0,.09-1.77ZM22.8,15.9c-.14-.16-.3-.33-.48-.5C22.5,15.57,22.66,15.74,22.8,15.9Zm.82,1.31-.1-.24A2.44,2.44,0,0,1,23.62,17.21Zm-.15-.33c-.07-.13-.14-.26-.24-.41C23.33,16.62,23.4,16.75,23.47,16.88Zm-.26-.45c-.11-.15-.23-.31-.37-.48C23,16.12,23.1,16.28,23.21,16.43Zm-.48-1.29h0Zm5.16,21.77a.41.41,0,0,1-.05.09A.41.41,0,0,0,27.89,36.91Zm-.36.6-.1.14Zm-5.32-22.7,0,0Zm0,.5c-.18-.15-.37-.31-.58-.47C21.85,15,22,15.16,22.22,15.31Zm-.77-.6a6.67,6.67,0,0,0-.71-.44A6.67,6.67,0,0,1,21.45,14.71Zm5.77,19.47h0Zm0,.24a.28.28,0,0,0,0,.09A.28.28,0,0,1,27.19,34.42Zm-.06.32,0,.11ZM27,35.2h0Zm-.47,3.54.08-.09Zm-.48.45h0Zm1.05-1.1-.11.13Z"/><path class="cls-2" d="M10.12,17.83h0l5,20h0l1.09-.23h0l-4.8-19.29,2.17-.4A3.41,3.41,0,0,1,15,18h0a3.52,3.52,0,0,0-2.39-.52c-1,.08-2.48.4-2.49.4Z"/><path class="cls-2" d="M26.16,32.56q-1.69-7.37-3.31-14.73c-.79-3.67-6.44-5.73-12.67-4.47Q5.1,14.4,0,15.5l2.39.76q1.77,7,3.65,14L4.35,31.86l2.34.78c.8,3,1.63,6,2.46,9L7.53,43.29c3.2-.7,6.38-1.38,9.58-2C23,40.06,27,36.23,26.16,32.56Zm-10,5.21-2,.41q-2.75-10.44-5.29-20.9L11,16.86c2.92-.6,5.6.35,6,2.07q1.7,7.37,3.48,14.71C20.9,35.37,19,37.2,16.2,37.77Z"/><path class="cls-2" d="M50.23,23.5,48.46,25c.27,1.54.55,3.08.83,4.62.56,3.17-3,6.33-8,7.16s-9.64-1-10.35-4.15c-.34-1.53-.68-3.07-1-4.6l-2.27-.86,1.74-1.59q-1-4.78-2-9.58c-.67-3.15,3.12-6.48,8.44-7.34s10,1.08,10.56,4.24,1.1,6.42,1.67,9.63Zm-9.67,9.79c1.94-.32,3.32-1.55,3.09-2.77Q42,22.17,40.52,13.83c-.23-1.22-2.05-1.95-4.08-1.62S33,13.8,33.2,15q1.63,8.32,3.37,16.66C36.83,32.89,38.61,33.61,40.56,33.29Z"/><path class="cls-2" d="M76.81,20.2,75,21.65q.57,4.59,1.17,9.18l2.09,1q-4.71.48-9.43,1l1.77-1.46q-1.1-7.77-2.12-15.54-4-2.46-8-4.88Q62,21.67,63.6,32.29l2.13,1c-3.15.39-6.29.8-9.44,1.24L58,33q-.77-4.58-1.5-9.15l-2.19-1,1.79-1.51Q55,14.33,53.91,7.25l-2.24-1c2.64-.36,5.29-.71,7.93-1,2.73,1.61,5.42,3.23,8.1,4.87-.2-1.5-.39-3-.58-4.51l-2.21-1c3.32-.4,6.64-.76,10-1.1L73,5q.82,7.11,1.71,14.22Z"/><path class="cls-2" d="M101.14,28.7l1.7,1.14q-4.71.29-9.41.66l2.09-1.38q.6-4.7,1.26-9.4L95,18.6l2.16-1.4q1-7.25,2.17-14.49h-.06L97.47,1.58c3.31-.22,6.61-.42,9.92-.59l-1.62,1.34h-.06q2.07,7.05,4.07,14.12l2.33,1.13-1.63,1.33c.86,3.06,1.71,6.11,2.55,9.17l2.27,1.12c-3.14.13-6.27.28-9.41.46l1.53-1.34h.06L106,23.26c-1.4.07-2.79.16-4.19.25-.25,1.73-.5,3.46-.74,5.19Zm1.21-8.81,2.63-.15-1.71-5.82C103,15.91,102.65,17.9,102.35,19.89Z"/><path class="cls-2" d="M141.79,17l-2,1.24c0,3.08,0,6.17,0,9.25l1.93,1.25q-4.69,0-9.39,0l1.91-1.27q-.09-7.82-.17-15.65-3.61-2.86-7.29-5.68.24,10.73.51,21.44l2,1.21c-3.13.06-6.27.14-9.4.24l1.89-1.3-.33-9.24-2-1.19,1.93-1.3-.48-14.3L118.8.51q3.95-.13,7.87-.22Q130.39,3.11,134,6c0-1.51,0-3,0-4.54L131.94.2q5-.06,9.9-.05l-2,1.25V15.7Z"/><path class="cls-2" d="M164,6.41c-1.94.24-3.88.5-5.81.76l0-.86c0-1.22-1.46-2.34-3.45-2.42S151,4.79,151,6.05c0,1,0,2-.05,3a2.1,2.1,0,0,0,1.22,1.77l2.71,1.58,2.81,0c0,.58.07,1.17.1,1.76.91.54,1.82,1.08,2.72,1.63,1.93,1.17,3,2.79,2.91,4.45,0,1-.09,2.05-.14,3.08-.15,3.2-4.3,5.64-9.26,5.52h0c-5-.11-9-2.74-8.94-5.94,1.86-.31,3.73-.6,5.61-.89,0,.32,0,.64,0,1,0,1.33,1.76,2.41,3.88,2.3,1.78-.1,3.1-1.08,3.14-2.23,0-1,.06-2,.1-2.94a2.12,2.12,0,0,0-1.18-1.78l-2.67-1.59-2.79.05c0-.59-.09-1.17-.13-1.76l-2.75-1.59c-2-1.13-3.08-2.71-3.06-4.37,0-1,0-2.06,0-3.08,0-3.21,4.29-5.78,9.54-5.66S164.12,3.21,164,6.41Z"/><path class="cls-2" d="M188.78,6.85,186.1,5.4c-3.43-.25-6.87-.48-10.3-.67q-.36,5.71-.73,11.42l4.09.25,1.35-1.17c.21.43.43.86.64,1.3.61,1.23,1.21,2.46,1.81,3.7.21.43.42.86.62,1.29L181,20.09c-2.05-.13-4.1-.26-6.15-.37q-.21,3.18-.43,6.37c2.85.16,5.71.34,8.56.54l1.33-1.15.62,1.29c.58,1.24,1.16,2.48,1.73,3.72q-10-.78-20-1.22l2-1.15q.27-4.62.52-9.24l-1.91-1.33,2.05-1.16q.39-7.14.76-14.28l-2-1.34q9.06.41,18.12,1.06c.63,1.24,1.26,2.48,1.87,3.72C188.35,6,188.57,6.41,188.78,6.85Z"/><path class="cls-2" d="M193.2,29.78q.5-4.61,1-9.21l-1.86-1.41,2.11-1.07q.74-7.12,1.42-14.25l-1.93-1.41c3.32.28,6.63.58,10,.92l-2.18,1q-.77,7.13-1.57,14.24L202,20.05l-2.13,1.05c-.26,2.29-.52,4.59-.79,6.88q4.28.42,8.57.89L209,27.78c.18.43.36.88.55,1.32q.8,1.89,1.56,3.78-10-1.18-20-2Z"/><path class="cls-2" d="M234.17,36.11l2.14-.92q2.07-10.57,4-21.15c-1.36.75-2.7,1.51-4,2.27l-4.07,2.33q-1.53-1.71-3.09-3.41T226,11.88q-1.62,10.62-3.38,21.23l1.7,1.5q-4.62-.66-9.24-1.25l2.09-1q.71-4.57,1.38-9.16l-1.76-1.48,2.13-1q1-7.09,2-14.18l-1.83-1.49q3.87.5,7.75,1,3.18,3.38,6.27,6.77,4.05-2.32,8.18-4.59,3.88.63,7.79,1.32l-2.25.87c-.88,4.7-1.8,9.4-2.73,14.09l1.71,1.57-2.2.89q-.91,4.55-1.86,9.09l1.66,1.56C240.34,37.13,237.26,36.61,234.17,36.11Z"/><path class="cls-2" d="M272.27,31.35l-2.33.79c-.41,1.53-.81,3-1.22,4.57-.85,3.13-5.63,4.79-10.65,3.81s-8.51-4.28-7.81-7.43c.35-1.53.69-3.06,1-4.6l-1.73-1.58,2.27-.86q1-4.8,2.07-9.58c.66-3.15,5.5-4.94,10.85-3.9s9.07,4.5,8.27,7.63-1.62,6.34-2.45,9.51ZM258.94,37c2,.39,3.79-.27,4.1-1.48q2.1-8.26,4.09-16.55c.29-1.21-1.13-2.52-3.18-2.92s-3.92.27-4.19,1.49q-1.86,8.3-3.83,16.59C255.64,35.36,257,36.64,258.94,37Z"/><g class="cls-3"><path class="cls-4" d="M115.33,45.18l-.08,0a2.3,2.3,0,0,0-1,.67l0,0-.05,0h0a5.35,5.35,0,0,0-2.37.28l-.18.07a4.79,4.79,0,0,0-1.88,1.32l0,0,0,0h0a5.41,5.41,0,0,0-2.36.41l-.12.06a5.33,5.33,0,0,0-1.94,1.49h0l0,0a.17.17,0,0,1-.12,0,2.52,2.52,0,0,0-1.17.23l-.07,0a1.19,1.19,0,0,0-.36.25c.74.07,1.15.23,1.28.45l.37.81a1.22,1.22,0,0,0,.9.65,1.85,1.85,0,0,0,.72,0c.06,0,.07-.05.07-.05a2.34,2.34,0,0,1-.64-.72,1.44,1.44,0,0,1-.2-.71c0-.71.52-1.3,1.46-1.72a1.27,1.27,0,0,1,.86-.13,1,1,0,0,1,.38.28,8.48,8.48,0,0,1,.9,1.67,2.32,2.32,0,0,1,.31,1.15,1.22,1.22,0,0,1-.33.59,1.25,1.25,0,0,1,.51.1c.33.11.7.59,1.13,1.45.09.2.19.4.28.58l.33.65c.22.43.28.73.2.91s-.46.51-1.13.83h0L111,57a2.28,2.28,0,0,0,1.55-.09,1.53,1.53,0,0,0,.92-1v0l.07,0h0l.11,0a2,2,0,0,0,1.32,0l.11,0a1.94,1.94,0,0,0,.6-.39,1.13,1.13,0,0,0,.34-.69v0A3.47,3.47,0,0,1,115,55c-.32,0-.58-.21-.78-.64s-.45-1-.74-1.58a4.13,4.13,0,0,1-.37-1.18,1.31,1.31,0,0,1,.24-.77,1.21,1.21,0,0,1-.51-.13c-.23-.09-.5-.5-.82-1.23-.08-.22-.16-.43-.25-.64a2.86,2.86,0,0,1-.35-1.17c0-.31.24-.57.72-.75h0a3.3,3.3,0,0,1,.85-.21,1.6,1.6,0,0,1,1.8,1v0a2.51,2.51,0,0,1,.12.91s0,0,.09,0a1.18,1.18,0,0,0,.58-1.5c0-.07-.14-.33-.36-.81-.09-.26.07-.64.5-1.19A1.51,1.51,0,0,0,115.33,45.18Z"/><path class="cls-4" d="M127.61,51.89c-.42-.28-.64-.51-.69-.73a3.72,3.72,0,0,0-.39-1.15,2.19,2.19,0,0,0-1.11-.74s-.1,0-.07.18,0,0,0,.1a8.71,8.71,0,0,1,.38,1,1.26,1.26,0,0,1,0,.61,1.11,1.11,0,0,1-.54.68,4.29,4.29,0,0,1-1.2.53l-.17,0a1.12,1.12,0,0,1-1-.09c-.1,0-.29-.23-.54-1.1s-.49-1.7-.72-2.55l.07,0,.23-.06h0a10.55,10.55,0,0,1,1.41-.28,3.3,3.3,0,0,1,1.18,0,.91.91,0,0,0-.22-.43.69.69,0,0,0-.44-.17h-.17l.14-.1a.87.87,0,0,0,.4-.86,4.62,4.62,0,0,1-1.78.75l-.3.08-.71.17h-.07c-.21-.74-.41-1.48-.61-2.22a1.69,1.69,0,0,1-.09-.61.76.76,0,0,1,.28-.55,3.28,3.28,0,0,1,1.37-.63,4.07,4.07,0,0,1,1.28-.1c.64.12,1,.41,1.1.87a1.8,1.8,0,0,1,0,.45,7.49,7.49,0,0,0-.09.88.23.23,0,0,0,.1.12,1.08,1.08,0,0,0,.53-.3,1.24,1.24,0,0,0,.48-1.28V44.3l0-.11c0-.14-.06-.31-.11-.51s.12-.65.52-1.07a3.2,3.2,0,0,0-.58,0,1.8,1.8,0,0,0-1,.56l0,0h0a6.43,6.43,0,0,0-2.86,0l-.24.06a3.47,3.47,0,0,0-2.22,1.22l-.05.08-.08,0a1.74,1.74,0,0,0-1.4-.1l0,0a2.92,2.92,0,0,0-.57.24,1.86,1.86,0,0,0-.85.86,3.69,3.69,0,0,1,1.35-.24.76.76,0,0,1,.61.62c0,.14.1.29.14.44a6.42,6.42,0,0,1,.41,1.77,1.19,1.19,0,0,1-.32.81,2.55,2.55,0,0,1-.3.26,1.77,1.77,0,0,1,.61.08,1.25,1.25,0,0,1,.51.43,10.3,10.3,0,0,1,1,2.66,1,1,0,0,1,0,.63c-.1.24-.49.46-1.19.69h0a1.58,1.58,0,0,0,1.43.21l.19,0a2.75,2.75,0,0,0,.56-.25,1.13,1.13,0,0,0,.41-.53l0-.08.08,0a3.08,3.08,0,0,0,2.13.1l.2-.05a4.18,4.18,0,0,0,1.37-.56,6.64,6.64,0,0,0,.77-.6v0h.08l.13.05a1.73,1.73,0,0,0,1.05.15l.11,0,.11,0h0l.07,0a.81.81,0,0,0,.19,0Z"/><path class="cls-4" d="M135.64,45.65a3.16,3.16,0,0,1-.28-.77,4.76,4.76,0,0,0-.42-1.08,4.32,4.32,0,0,0-.56-.82,4.07,4.07,0,0,0-.86-.74,4.32,4.32,0,0,0-.84-.38,4.64,4.64,0,0,0-1.83-.19l-.31,0a4.58,4.58,0,0,0-1.3.37,3.7,3.7,0,0,0-.73.43,4.59,4.59,0,0,0-.66.63,4.18,4.18,0,0,0-.55.88,5.52,5.52,0,0,0-.36,1.31c0,.44,0,.74-.06.89a2.09,2.09,0,0,1-.71,1.06l.1,0a1.92,1.92,0,0,1,.63.51,5.48,5.48,0,0,1,.57,1,6.69,6.69,0,0,0,.6,1.16,6,6,0,0,0,.59.71,4.4,4.4,0,0,0,.77.61,3.88,3.88,0,0,0,2.54.53.14.14,0,0,1,.09,0h.06l.22,0c1,.21,1.49.69,1.56,1.38v.08a1.82,1.82,0,0,1,0,.33,1,1,0,0,0,.5-.88v0a.84.84,0,0,0-.08-.29l0-.09h.12a2.93,2.93,0,0,0,.49,0,.79.79,0,0,0,.49-.18.83.83,0,0,0,.21-.44,1.09,1.09,0,0,1-.45.15h0a1,1,0,0,1-.44-.09,6,6,0,0,1-.83-.59l-.06,0,.06,0a3.28,3.28,0,0,0,.82-.81,5.54,5.54,0,0,0,.5-.87,7,7,0,0,0,.34-1.13,7.79,7.79,0,0,1,.18-1.33,1.37,1.37,0,0,1,.19-.46,1,1,0,0,1,.42-.37,1.2,1.2,0,0,1-.23-.11A1.39,1.39,0,0,1,135.64,45.65ZM132.7,45a1.74,1.74,0,0,1-.46,1.34l0,0c.37.2.59.75.69,1.69,0,.16,0,.42.07.76A3.07,3.07,0,0,1,133,50.4l0,.06-.07,0a1.44,1.44,0,0,0-.78-.13h0a1.47,1.47,0,0,0-1,.61l0,.05-.06,0a.8.8,0,0,1-.34-.24,1.54,1.54,0,0,1-.27-.46,9,9,0,0,1-.34-1.7,3.13,3.13,0,0,1,0-1.5,1.57,1.57,0,0,1,.29-.44c-.44-.13-.72-.57-.83-1.36a1.11,1.11,0,0,1,0-.23,3.53,3.53,0,0,1,0-1.7c.14-.4.58-.65,1.3-.74a1.64,1.64,0,0,1,1.37.31,1.49,1.49,0,0,1,.29.59,12.92,12.92,0,0,1,.24,1.44Z"/><path class="cls-4" d="M145.71,41.58h0a1.53,1.53,0,0,0-1.1.32l-.06.05-.06-.06a1.41,1.41,0,0,0-1-.5h0a1.73,1.73,0,0,0-.62.09,1.29,1.29,0,0,0-.59.46,2.4,2.4,0,0,1,.89.16.78.78,0,0,1,.41.81c0,.94-.07,1.51-.08,1.71a3.21,3.21,0,0,1-.16,1A.69.69,0,0,1,143,46l0,0c.19.18.26.65.22,1.45s-.09,1.48-.1,1.66c-.06.91-.58,1.34-1.57,1.31a2,2,0,0,1-1.06-.28,1.24,1.24,0,0,1-.49-1.05V47.47a4.06,4.06,0,0,1,.11-1.1.92.92,0,0,1,.31-.48l-.13-.11c-.19-.19-.28-.68-.27-1.51,0-.59,0-1.06,0-1.44a1,1,0,0,1,.14-.53c.14-.26.55-.39,1.23-.38a.35.35,0,0,0-.08-.1,1.59,1.59,0,0,0-1.27-.52,1.67,1.67,0,0,0-1.27.45l0,0h-.12v-.06l-.15-.11a2.18,2.18,0,0,0-1.15-.28h-.18a2,2,0,0,0-.65.14A1.24,1.24,0,0,0,136,42a2.94,2.94,0,0,1,1.09.1c.29.08.45.38.46.92,0,.37,0,.75,0,1.12a4.12,4.12,0,0,1-.11,1.41.8.8,0,0,1-.27.37,1.2,1.2,0,0,1,.17.11c.18.15.28.57.3,1.27,0,.4,0,.79,0,1.18a3.05,3.05,0,0,0,.44,1.6c.47.8,1.47,1.19,3,1.22h.2a5.06,5.06,0,0,0,2.32-.4A2.69,2.69,0,0,0,145,48.62c0-.28,0-.51,0-.7s0-.41,0-.62a2.13,2.13,0,0,1,.2-.83.81.81,0,0,1,.41-.36,1.46,1.46,0,0,1-.22-.28,2.74,2.74,0,0,1-.14-1.47c0-.45.07-.89.1-1.33a1,1,0,0,1,.24-.6,1.51,1.51,0,0,1,1.14-.21.4.4,0,0,0-.09-.19A1.49,1.49,0,0,0,145.71,41.58Z"/><path class="cls-4" d="M151.84,42.23h-.06a2.6,2.6,0,0,0-.88,0,1.42,1.42,0,0,0-.69.25l-.07,0,0-.07a1.72,1.72,0,0,0-1.22-.62h-.13a2.49,2.49,0,0,0-1.33.19c-.26.14-.3.22-.3.26h0a3.62,3.62,0,0,1,1.17.25.71.71,0,0,1,.41.76l-.12,1c0,.12,0,.23,0,.35a2.39,2.39,0,0,1-.47,1.41,1,1,0,0,1-.47.24.94.94,0,0,1,.37.33,3.06,3.06,0,0,1,.09,1.81c0,.17-.05.34-.07.51s-.09.69-.16,1.18a1,1,0,0,1-.26.52c-.19.19-.62.25-1.31.18h-.06v0s0,.12.1.27a1.59,1.59,0,0,0,1,.48l.16,0a2,2,0,0,0,.48,0,1.27,1.27,0,0,0,.8-.35l0,0,.12,0v0l.06.08a1.93,1.93,0,0,0,1.18.61,2,2,0,0,0,1.12-.12.61.61,0,0,0,.29-.28v0h0a2.38,2.38,0,0,1-1.16-.4c-.18-.14-.23-.45-.14-1s.16-1,.25-1.61a4.08,4.08,0,0,1,.33-1.19,1,1,0,0,1,.53-.51l.17,0a1.19,1.19,0,0,1-.36-.31,1.75,1.75,0,0,1-.11-1.32c.1-.54.18-1,.23-1.28a1.15,1.15,0,0,1,.36-.81,2.42,2.42,0,0,1,1.51,0h0a.55.55,0,0,0-.07-.18A1.85,1.85,0,0,0,151.84,42.23Z"/><path class="cls-4" d="M160.34,54a1.41,1.41,0,0,1-.22-1,3.3,3.3,0,0,0,.26-1.16,2,2,0,0,0-.59-1.17c-.09,0-.11,0-.12,0a2.87,2.87,0,0,1-.09,1.08l0,.07,0,.1-.05,0a1.41,1.41,0,0,1-.4.58,2.34,2.34,0,0,1-2.12.21l-.29-.09-.07,0v0a1.12,1.12,0,0,1-.58-.35c-.21-.14-.21-.54,0-1.26.14-.5.28-1,.41-1.52a5.42,5.42,0,0,1,.25-.76,1.12,1.12,0,0,1,.47-.51,1.51,1.51,0,0,1,.41-.1,2,2,0,0,1-.36-.49,1.83,1.83,0,0,1,0-1.23,15.56,15.56,0,0,1,.47-1.63h0a.63.63,0,0,1,.32-.36,2.74,2.74,0,0,1,1.52.12h0a1.18,1.18,0,0,0-.27-.39,2.74,2.74,0,0,0-1.2-.61,1.9,1.9,0,0,0-1.47.14l-.11.06,0-.1s0-.09-.17-.26a2,2,0,0,0-.93-.45l-.13,0a2.78,2.78,0,0,0-.77,0,1.69,1.69,0,0,0-.93.35,3.88,3.88,0,0,1,1.21.38.76.76,0,0,1,.27.87c0,.21-.09.42-.13.63a6.67,6.67,0,0,1-.43,1.42,1.31,1.31,0,0,1-.57.61,2.73,2.73,0,0,1-.56.15,1.47,1.47,0,0,1,.5.36,1.13,1.13,0,0,1,.2.61c.05.12,0,.57-.47,2.78a1,1,0,0,1-.34.55,2,2,0,0,1-1.35,0h0a1.47,1.47,0,0,0,1.1.84l.19,0a3,3,0,0,0,.61,0,1.13,1.13,0,0,0,.63-.28l0,0h0s0,0,.13.15l.29.32a3.75,3.75,0,0,0,1.41.64l.21.05a4.37,4.37,0,0,0,1.49.15,7.32,7.32,0,0,0,1-.16h.07l0,0,.09.11a1.78,1.78,0,0,0,.84.62l.11,0,.1,0h0l.06,0,.2,0A3,3,0,0,1,160.34,54Z"/><path class="cls-4" d="M170.07,57a16.56,16.56,0,0,1,.84-3.21l0-.09a1,1,0,0,1,.41-.41.87.87,0,0,1,.32-.06l-.05,0a1.25,1.25,0,0,1-.45-.61,4.48,4.48,0,0,1,.1-1.71,8.17,8.17,0,0,1,.3-1.59.35.35,0,0,1,.19-.19,2,2,0,0,1,1.13.29l.13.06a.82.82,0,0,0,0-.18,2,2,0,0,0-1.15-1,2.31,2.31,0,0,0-1.58-.21l-.09,0,0-.07c-.06-.11-.12-.22-.18-.31a2.65,2.65,0,0,0-1.1-.76l-.15-.06a2.82,2.82,0,0,0-1.2-.21c-.31,0-.51.12-.58.24l.24.09a4.11,4.11,0,0,1,.38.18c.33.17.46.35.39.51v0a1.68,1.68,0,0,1-.41.5,9.47,9.47,0,0,1-1.77,1.66,2.7,2.7,0,0,1-.7.32,1.7,1.7,0,0,1-.48,0,.7.7,0,0,1,.07.81,6.67,6.67,0,0,1-1.19,1.65,6.09,6.09,0,0,1-1,1,1.15,1.15,0,0,1-.74.24,2.2,2.2,0,0,1-.56-.07l-.38-.1h0a.66.66,0,0,0,0,.23,1.31,1.31,0,0,0,.84.72,1.57,1.57,0,0,0,.49.08.94.94,0,0,0,.66-.19l0,0,.07,0,0,0c.34.64.78.91,1.35.79a1.47,1.47,0,0,0,.54-.21,3.64,3.64,0,0,1-.5-.27.48.48,0,0,1-.21-.62,1.09,1.09,0,0,0,.12-.23c.09-.12.47-.58,1.12-1.35l0,0c.93.36,1.87.75,2.8,1.15-.06.3-.13.59-.19.88a4.05,4.05,0,0,1-.31,1.1.51.51,0,0,1-.28.24,1.85,1.85,0,0,1-1-.22,1.6,1.6,0,0,0,.85,1.07l.08,0a1.4,1.4,0,0,0,1.13,0l.09,0c0,.08,0,.16.07.23a1.7,1.7,0,0,0,.82.85l.09,0a1.66,1.66,0,0,0,.91.16,1,1,0,0,0,.47-.2,2.84,2.84,0,0,1-.63-.41A.87.87,0,0,1,170.07,57Zm-4-4.91.05-.06c1.67-1.85,2.59-2.8,2.7-2.92l0,0,.15.06,0,.06s-.08.72-.63,3.76v.07C167.61,52.73,166.86,52.42,166.1,52.12Z"/></g><path class="cls-2" d="M115.63,44.49l-.09,0a2.34,2.34,0,0,0-1,.67l0,0,0,0h0a5.39,5.39,0,0,0-2.38.28l-.18.07A4.94,4.94,0,0,0,110,46.9l0,0,0,0h0a5.36,5.36,0,0,0-2.35.41l-.12.06a5.33,5.33,0,0,0-1.94,1.49h0a.14.14,0,0,1-.12,0,2.55,2.55,0,0,0-1.17.23l-.06,0a1.4,1.4,0,0,0-.37.25c.75.07,1.16.23,1.28.45.22.48.35.75.38.81a1.22,1.22,0,0,0,.89.65,2.05,2.05,0,0,0,.72,0c.06,0,.07,0,.07,0a2.48,2.48,0,0,1-.64-.72,1.73,1.73,0,0,1-.2-.72c0-.71.52-1.29,1.46-1.71a1.35,1.35,0,0,1,.86-.14.91.91,0,0,1,.38.29,7.51,7.51,0,0,1,.9,1.67,2.12,2.12,0,0,1,.31,1.15,1.22,1.22,0,0,1-.33.59,1.27,1.27,0,0,1,.52.1c.32.11.69.58,1.12,1.45l.29.58.33.65c.22.43.28.73.19.91s-.45.5-1.13.83h0l.13.05a2.25,2.25,0,0,0,1.54-.09,1.53,1.53,0,0,0,.93-1v0l.06,0h0l.11.05a2,2,0,0,0,1.32,0l.11,0a2.2,2.2,0,0,0,.6-.39,1.11,1.11,0,0,0,.33-.69v0a3.47,3.47,0,0,1-1.08.26c-.32,0-.59-.21-.79-.64s-.44-1-.73-1.58a3.91,3.91,0,0,1-.37-1.18,1.23,1.23,0,0,1,.23-.77,1.26,1.26,0,0,1-.51-.13q-.33-.14-.81-1.23c-.08-.22-.17-.43-.26-.64A2.65,2.65,0,0,1,111.7,47c0-.31.24-.56.72-.74h0a3.48,3.48,0,0,1,.86-.21,1.59,1.59,0,0,1,1.79,1v0a2.31,2.31,0,0,1,.12.91s0,0,.09,0a1.19,1.19,0,0,0,.59-1.5l-.36-.81c-.09-.26.07-.65.5-1.19A1.4,1.4,0,0,0,115.63,44.49Z"/><path class="cls-2" d="M127.91,51.2c-.42-.28-.65-.52-.7-.73a3.51,3.51,0,0,0-.38-1.15,2.22,2.22,0,0,0-1.12-.74s-.09.05-.07.17l0,.11a6.55,6.55,0,0,1,.37,1,1.27,1.27,0,0,1,0,.61,1.12,1.12,0,0,1-.55.68,4.05,4.05,0,0,1-1.2.53l-.16,0a1.11,1.11,0,0,1-1-.09c-.11-.05-.29-.23-.54-1.1s-.49-1.7-.73-2.55l.08,0,.22-.06h0a10.86,10.86,0,0,1,1.41-.28,3.13,3.13,0,0,1,1.19,0,1,1,0,0,0-.22-.43.69.69,0,0,0-.44-.17H124l.13-.09a.87.87,0,0,0,.41-.86,4.75,4.75,0,0,1-1.79.75l-.3.08-.7.16-.07,0c-.21-.74-.41-1.48-.62-2.22a1.71,1.71,0,0,1-.09-.62.77.77,0,0,1,.29-.54,3.3,3.3,0,0,1,1.36-.63,4.15,4.15,0,0,1,1.29-.1c.64.12,1,.41,1.1.87a1.74,1.74,0,0,1,0,.45,4.35,4.35,0,0,0-.08.87.17.17,0,0,0,.1.13,1.08,1.08,0,0,0,.53-.3,1.24,1.24,0,0,0,.48-1.28v-.06s0,0,0,0v0l0-.11c0-.14-.06-.31-.11-.52s.12-.65.53-1.06a3.25,3.25,0,0,0-.59,0,1.78,1.78,0,0,0-1,.56l0,0h-.06a6.39,6.39,0,0,0-2.85,0l-.25.06a3.41,3.41,0,0,0-2.21,1.22l0,.08-.08-.05a1.75,1.75,0,0,0-1.4-.1l-.06,0a2.85,2.85,0,0,0-.56.24,1.86,1.86,0,0,0-.85.86,3.66,3.66,0,0,1,1.35-.24.76.76,0,0,1,.61.62c0,.14.09.29.14.44a6.25,6.25,0,0,1,.4,1.77,1.18,1.18,0,0,1-.31.81,2.66,2.66,0,0,1-.31.26,1.86,1.86,0,0,1,.62.08,1.25,1.25,0,0,1,.51.43,10.84,10.84,0,0,1,1,2.66,1,1,0,0,1,0,.63c-.1.24-.5.46-1.2.68h0a1.59,1.59,0,0,0,1.43.21l.2-.05a3,3,0,0,0,.56-.25,1.07,1.07,0,0,0,.4-.54l0-.08.08,0a3,3,0,0,0,2.14.11l.2,0a4.22,4.22,0,0,0,1.36-.56,5.9,5.9,0,0,0,.77-.61h.09l.14,0a1.78,1.78,0,0,0,1,.15l.12,0,.11,0h0l.07,0,.19,0A2.56,2.56,0,0,1,127.91,51.2Z"/><path class="cls-2" d="M135.94,45a3.47,3.47,0,0,1-.29-.77,5,5,0,0,0-.41-1.09,4.23,4.23,0,0,0-.57-.81,4,4,0,0,0-.85-.74,5.54,5.54,0,0,0-.84-.39,4.66,4.66,0,0,0-1.84-.18l-.3,0a5.07,5.07,0,0,0-1.31.36,4.36,4.36,0,0,0-.72.44,4.13,4.13,0,0,0-.67.63,4.32,4.32,0,0,0-.54.87,5.14,5.14,0,0,0-.37,1.32c0,.44,0,.74,0,.88a2,2,0,0,1-.72,1.07l.11,0a2,2,0,0,1,.62.51,5,5,0,0,1,.57,1,6.73,6.73,0,0,0,.61,1.16,6,6,0,0,0,.59.71,4.92,4.92,0,0,0,.77.61,3.84,3.84,0,0,0,2.53.52h.16l.22,0c1,.21,1.49.69,1.56,1.38v.08a1.81,1.81,0,0,1,0,.33,1,1,0,0,0,.51-.88v0a1.21,1.21,0,0,0-.08-.28l0-.1.12,0a3,3,0,0,0,.5,0,.79.79,0,0,0,.49-.18.9.9,0,0,0,.2-.44,1.09,1.09,0,0,1-.44.15h0a1,1,0,0,1-.44-.09,6.67,6.67,0,0,1-.83-.59l-.06-.05.07,0a3.44,3.44,0,0,0,.81-.81,5,5,0,0,0,.51-.88,5.81,5.81,0,0,0,.33-1.12,7.79,7.79,0,0,1,.18-1.33,1.35,1.35,0,0,1,.2-.46,1,1,0,0,1,.41-.37,1.13,1.13,0,0,1-.22-.11A1.39,1.39,0,0,1,135.94,45ZM133,44.31a1.77,1.77,0,0,1-.45,1.34l0,0c.37.2.6.75.7,1.69,0,.16,0,.42.07.76a3.19,3.19,0,0,1-.08,1.59l0,0-.06,0a1.56,1.56,0,0,0-.78-.14h0a1.49,1.49,0,0,0-1,.61l0,.05,0,0a.85.85,0,0,1-.35-.24,1.3,1.3,0,0,1-.26-.46,7.39,7.39,0,0,1-.35-1.7,3.26,3.26,0,0,1,.05-1.5,1.43,1.43,0,0,1,.3-.44c-.45-.13-.72-.58-.84-1.37,0-.09,0-.17,0-.22a3.67,3.67,0,0,1,0-1.7c.14-.4.58-.65,1.3-.74a1.6,1.6,0,0,1,1.37.31,1.55,1.55,0,0,1,.3.59,14.33,14.33,0,0,1,.23,1.44Z"/><path class="cls-2" d="M146,40.89h0a1.53,1.53,0,0,0-1.1.32l-.07,0-.05-.06a1.43,1.43,0,0,0-1-.5h0a1.67,1.67,0,0,0-.61.09,1.14,1.14,0,0,0-.59.46,2.49,2.49,0,0,1,.89.16.78.78,0,0,1,.4.81c0,.94-.07,1.51-.08,1.71a3,3,0,0,1-.15,1,.7.7,0,0,1-.26.36l.05,0c.19.18.25.65.21,1.45s-.09,1.48-.1,1.66c-.05.91-.58,1.34-1.56,1.31a1.88,1.88,0,0,1-1.06-.29,1.21,1.21,0,0,1-.5-1V46.78a4,4,0,0,1,.12-1.1.82.82,0,0,1,.3-.48l-.12-.11c-.19-.19-.28-.68-.28-1.52,0-.58,0-1,0-1.43a1,1,0,0,1,.14-.53c.13-.26.54-.39,1.22-.38a.61.61,0,0,0-.07-.1,1.6,1.6,0,0,0-1.27-.52,1.65,1.65,0,0,0-1.27.44l0,0H139V41l-.15-.11a2.14,2.14,0,0,0-1.15-.28h-.18a2.37,2.37,0,0,0-.65.15,1.17,1.17,0,0,0-.6.52,2.88,2.88,0,0,1,1.08.1c.3.08.45.38.47.92l0,1.12a4.21,4.21,0,0,1-.1,1.41.81.81,0,0,1-.28.37.62.62,0,0,1,.17.11c.19.15.29.57.31,1.27,0,.4,0,.79,0,1.18a3.05,3.05,0,0,0,.44,1.6c.46.8,1.47,1.18,3,1.22h.21a5.09,5.09,0,0,0,2.32-.4,2.71,2.71,0,0,0,1.32-2.28c0-.28,0-.51,0-.7s0-.41.05-.62a2.24,2.24,0,0,1,.2-.84.82.82,0,0,1,.4-.35,1.34,1.34,0,0,1-.21-.28,2.73,2.73,0,0,1-.15-1.48c0-.44.07-.88.11-1.32a1,1,0,0,1,.24-.6,1.49,1.49,0,0,1,1.13-.21.35.35,0,0,0-.08-.19A1.49,1.49,0,0,0,146,40.89Z"/><path class="cls-2" d="M152.14,41.54h-.06a2.66,2.66,0,0,0-.89,0,1.51,1.51,0,0,0-.68.24l-.08,0-.05-.07a1.68,1.68,0,0,0-1.21-.62H149a2.57,2.57,0,0,0-1.33.18c-.26.15-.31.23-.31.27h0a3.69,3.69,0,0,1,1.18.25.72.72,0,0,1,.4.76c0,.42-.08.76-.11,1s0,.23,0,.35a2.32,2.32,0,0,1-.48,1.4.89.89,0,0,1-.46.25.78.78,0,0,1,.36.33,2.9,2.9,0,0,1,.09,1.81l-.06.51c0,.29-.1.69-.17,1.18a.94.94,0,0,1-.25.51c-.19.2-.62.26-1.32.19h0v0a.53.53,0,0,0,.1.28,1.66,1.66,0,0,0,1,.48l.15,0a2.6,2.6,0,0,0,.48,0,1.27,1.27,0,0,0,.8-.35l0,0,.11,0v0l.06.08a2,2,0,0,0,1.19.61,2,2,0,0,0,1.11-.12.61.61,0,0,0,.29-.28v0h0a2.34,2.34,0,0,1-1.15-.4c-.18-.14-.24-.46-.15-1s.16-1,.26-1.61a4.5,4.5,0,0,1,.32-1.19,1,1,0,0,1,.54-.51l.16,0a1.28,1.28,0,0,1-.35-.31c-.19-.21-.22-.65-.11-1.32s.17-1,.22-1.28.19-.7.37-.81a2.41,2.41,0,0,1,1.51,0h0s0,0-.07-.19A1.86,1.86,0,0,0,152.14,41.54Z"/><path class="cls-2" d="M160.63,53.32a1.31,1.31,0,0,1-.21-1,3.22,3.22,0,0,0,.25-1.16,1.93,1.93,0,0,0-.58-1.17c-.09,0-.12,0-.12,0a2.82,2.82,0,0,1-.09,1.07l0,.08,0,.1,0,0a1.44,1.44,0,0,1-.41.58,2.31,2.31,0,0,1-2.12.2A1.83,1.83,0,0,1,157,52L157,52v0a1.15,1.15,0,0,1-.59-.35c-.2-.14-.21-.55,0-1.26.13-.5.27-1,.41-1.52a3.59,3.59,0,0,1,.25-.76,1,1,0,0,1,.47-.51,1.51,1.51,0,0,1,.41-.1,2,2,0,0,1-.37-.49,1.92,1.92,0,0,1,0-1.23,11.15,11.15,0,0,1,.47-1.63h0a.6.6,0,0,1,.32-.36,2.65,2.65,0,0,1,1.52.12h0a1.15,1.15,0,0,0-.28-.39,2.7,2.7,0,0,0-1.19-.61,1.89,1.89,0,0,0-1.48.14l-.1.06,0-.1a1.09,1.09,0,0,0-.17-.26,2.07,2.07,0,0,0-.93-.45l-.13,0a2.84,2.84,0,0,0-.78,0,1.69,1.69,0,0,0-.92.35,3.71,3.71,0,0,1,1.21.38.76.76,0,0,1,.27.87c0,.21-.09.42-.14.63a6.81,6.81,0,0,1-.42,1.42,1.3,1.3,0,0,1-.58.6,2.05,2.05,0,0,1-.55.16,1.4,1.4,0,0,1,.49.36,1.14,1.14,0,0,1,.21.6,9.63,9.63,0,0,1-.48,2.79,1,1,0,0,1-.33.55,2.07,2.07,0,0,1-1.35,0h0a1.44,1.44,0,0,0,1.09.85l.2,0a2.33,2.33,0,0,0,.6,0,1,1,0,0,0,.63-.27l0,0h0s.05,0,.13.15l.28.32a4,4,0,0,0,1.42.64l.2,0a4.42,4.42,0,0,0,1.5.15,7.58,7.58,0,0,0,1-.16h0l0,0,0,0a1,1,0,0,1,.08.11,1.76,1.76,0,0,0,.85.62l.11,0,.1,0h0l.07,0,.2,0C160.72,53.48,160.67,53.39,160.63,53.32Z"/><path class="cls-2" d="M170.36,56.34a16.56,16.56,0,0,1,.84-3.21l.05-.09a.93.93,0,0,1,.4-.41.87.87,0,0,1,.32-.06s0,0,0,0a1.13,1.13,0,0,1-.45-.6,4.09,4.09,0,0,1,.1-1.71,9.62,9.62,0,0,1,.29-1.59.37.37,0,0,1,.2-.19,1.94,1.94,0,0,1,1.12.29l.14.06a1.23,1.23,0,0,0,0-.18,2,2,0,0,0-1.15-1,2.3,2.3,0,0,0-1.58-.21l-.08,0,0-.07a1.33,1.33,0,0,0-.18-.31,2.8,2.8,0,0,0-1.09-.77l-.15-.05a2.85,2.85,0,0,0-1.2-.21.79.79,0,0,0-.59.24l.24.09a1.85,1.85,0,0,1,.38.18c.34.17.47.35.4.51l0,0a1.6,1.6,0,0,1-.4.5,10.18,10.18,0,0,1-1.77,1.66,2.86,2.86,0,0,1-.7.32,1.77,1.77,0,0,1-.48.05.7.7,0,0,1,.06.81,6.85,6.85,0,0,1-1.18,1.65,7,7,0,0,1-1,1,1.2,1.2,0,0,1-.75.24,2.32,2.32,0,0,1-.56-.07l-.37-.1h0a.66.66,0,0,0,0,.23,1.33,1.33,0,0,0,.84.72,1.64,1.64,0,0,0,.5.08.94.94,0,0,0,.66-.19l0,0,.07,0,0,0a1.21,1.21,0,0,0,1.36.79,1.78,1.78,0,0,0,.54-.21,4,4,0,0,1-.51-.27.48.48,0,0,1-.2-.62l.12-.23c.09-.12.47-.58,1.12-1.35l0,0c.94.36,1.87.75,2.8,1.15-.06.29-.12.59-.19.88a3.72,3.72,0,0,1-.31,1.1.48.48,0,0,1-.28.24,1.84,1.84,0,0,1-1-.22,1.59,1.59,0,0,0,.84,1.07l.09,0a1.4,1.4,0,0,0,1.13,0l.08,0c0,.08,0,.16.08.23a1.66,1.66,0,0,0,.81.84l.1,0a1.66,1.66,0,0,0,.91.16,1.18,1.18,0,0,0,.47-.2,3,3,0,0,1-.63-.41A.84.84,0,0,1,170.36,56.34Zm-4-4.91.06-.06c1.66-1.85,2.59-2.8,2.7-2.92l0,0,.15.06,0,.05s-.07.73-.62,3.77l0,.07C167.91,52,167.15,51.73,166.39,51.43Z"/><path class="cls-5" d="M122,59a1.74,1.74,0,0,1,.39.42,4.74,4.74,0,0,1-.15.55,1.47,1.47,0,0,1,.29.32h0a2.1,2.1,0,0,1,.15.3,3.08,3.08,0,0,1-1.24,1.24,3,3,0,0,1,1.24,1.23,2.1,2.1,0,0,1-.15.3h0a1.28,1.28,0,0,1-.29.32,4.94,4.94,0,0,1,.15.56,2,2,0,0,1-.39.42,17.37,17.37,0,0,1,.69,4.54,17.76,17.76,0,0,1,.7-4.54,2.28,2.28,0,0,1-.4-.42,4.83,4.83,0,0,1,.16-.56,1.28,1.28,0,0,1-.29-.32h0a1.4,1.4,0,0,1-.15-.3,2.94,2.94,0,0,1,1.24-1.23,3,3,0,0,1-1.24-1.24,1.4,1.4,0,0,1,.15-.3h0a1.47,1.47,0,0,1,.29-.32,4.63,4.63,0,0,1-.16-.55,2,2,0,0,1,.4-.42,17.85,17.85,0,0,1-.7-4.55A17.46,17.46,0,0,1,122,59Zm.13,5.73a1.77,1.77,0,0,0,.3-.31,14.43,14.43,0,0,1,.21,1.47v1.33A13.56,13.56,0,0,0,122.13,64.75Zm1.13,0a12.07,12.07,0,0,0-.51,2.49V65.91a14.43,14.43,0,0,1,.21-1.47A1.77,1.77,0,0,0,123.26,64.75Zm-.62-3.82v.21a1.9,1.9,0,0,1-.68.67h-.21A3,3,0,0,0,122.64,60.93Zm-.89,1H122a1.9,1.9,0,0,1,.68.67v.21A3.11,3.11,0,0,0,121.75,61.92Zm1,.88v-.21a2,2,0,0,1,.67-.67h.21A3,3,0,0,0,122.75,62.8Zm.88-1h-.21a2,2,0,0,1-.67-.67v-.21A2.84,2.84,0,0,0,123.63,61.81ZM122.13,59a13.56,13.56,0,0,0,.51-2.49v1.33a14,14,0,0,1-.21,1.47A2.2,2.2,0,0,0,122.13,59Zm.83.31a14,14,0,0,1-.21-1.47V56.49a12.07,12.07,0,0,0,.51,2.49A2.2,2.2,0,0,0,123,59.29Z"/><path class="cls-5" d="M156.23,59a1.74,1.74,0,0,1,.39.42,4.63,4.63,0,0,1-.16.55,1.52,1.52,0,0,1,.3.32h0a2.11,2.11,0,0,1,.16.3,3.08,3.08,0,0,1-1.24,1.24,3,3,0,0,1,1.24,1.23,2.11,2.11,0,0,1-.16.3h0a1.31,1.31,0,0,1-.3.32,4.83,4.83,0,0,1,.16.56,2,2,0,0,1-.39.42,18.26,18.26,0,0,1,.69,4.54,18.26,18.26,0,0,1,.69-4.54,2,2,0,0,1-.39-.42,4.83,4.83,0,0,1,.16-.56,1.31,1.31,0,0,1-.3-.32h0l-.15-.3a3,3,0,0,1,1.24-1.23,3.08,3.08,0,0,1-1.24-1.24l.15-.3h0a1.52,1.52,0,0,1,.3-.32,4.63,4.63,0,0,1-.16-.55,1.74,1.74,0,0,1,.39-.42,18.35,18.35,0,0,1-.69-4.55A18.35,18.35,0,0,1,156.23,59Zm.13,5.73a1.72,1.72,0,0,0,.29-.31,12.08,12.08,0,0,1,.21,1.47v1.33A12.83,12.83,0,0,0,156.36,64.75Zm1.12,0a13.56,13.56,0,0,0-.51,2.49V65.91a14.32,14.32,0,0,1,.22-1.47A1.72,1.72,0,0,0,157.48,64.75Zm-.61-3.82v.21a2.07,2.07,0,0,1-.68.67H156A3,3,0,0,0,156.87,60.93Zm-.89,1h.21a2.07,2.07,0,0,1,.68.67v.21A3.11,3.11,0,0,0,156,61.92Zm1,.88v-.21a2,2,0,0,1,.68-.67h.21A3.11,3.11,0,0,0,157,62.8Zm.89-1h-.21a2,2,0,0,1-.68-.67v-.21A3,3,0,0,0,157.86,61.81ZM156.36,59a12.83,12.83,0,0,0,.5-2.49v1.33a11.8,11.8,0,0,1-.21,1.47A2.13,2.13,0,0,0,156.36,59Zm.83.31a13.91,13.91,0,0,1-.22-1.47V56.49a13.56,13.56,0,0,0,.51,2.49A2.13,2.13,0,0,0,157.19,59.29Z"/><path class="cls-2" d="M122,59a1.74,1.74,0,0,1,.39.42,4.74,4.74,0,0,1-.15.55,1.47,1.47,0,0,1,.29.32h0a2.1,2.1,0,0,1,.15.3,3.08,3.08,0,0,1-1.24,1.24,3,3,0,0,1,1.24,1.23,2.1,2.1,0,0,1-.15.3h0a1.28,1.28,0,0,1-.29.32,4.94,4.94,0,0,1,.15.56,2,2,0,0,1-.39.42,17.37,17.37,0,0,1,.69,4.54,17.76,17.76,0,0,1,.7-4.54,2.28,2.28,0,0,1-.4-.42,4.83,4.83,0,0,1,.16-.56,1.28,1.28,0,0,1-.29-.32h0a1.4,1.4,0,0,1-.15-.3,2.94,2.94,0,0,1,1.24-1.23,3,3,0,0,1-1.24-1.24,1.4,1.4,0,0,1,.15-.3h0a1.47,1.47,0,0,1,.29-.32,4.63,4.63,0,0,1-.16-.55,2,2,0,0,1,.4-.42,17.85,17.85,0,0,1-.7-4.55A17.46,17.46,0,0,1,122,59Zm.13,5.73a1.77,1.77,0,0,0,.3-.31,14.43,14.43,0,0,1,.21,1.47v1.33A13.56,13.56,0,0,0,122.13,64.75Zm1.13,0a12.07,12.07,0,0,0-.51,2.49V65.91a14.43,14.43,0,0,1,.21-1.47A1.77,1.77,0,0,0,123.26,64.75Zm-.62-3.82v.21a1.9,1.9,0,0,1-.68.67h-.21A3,3,0,0,0,122.64,60.93Zm-.89,1H122a1.9,1.9,0,0,1,.68.67v.21A3.11,3.11,0,0,0,121.75,61.92Zm1,.88v-.21a2,2,0,0,1,.67-.67h.21A3,3,0,0,0,122.75,62.8Zm.88-1h-.21a2,2,0,0,1-.67-.67v-.21A2.84,2.84,0,0,0,123.63,61.81ZM122.13,59a13.56,13.56,0,0,0,.51-2.49v1.33a14,14,0,0,1-.21,1.47A2.2,2.2,0,0,0,122.13,59Zm.83.31a14,14,0,0,1-.21-1.47V56.49a12.07,12.07,0,0,0,.51,2.49A2.2,2.2,0,0,0,123,59.29Z"/><path class="cls-2" d="M156.23,59a1.74,1.74,0,0,1,.39.42,4.63,4.63,0,0,1-.16.55,1.52,1.52,0,0,1,.3.32h0a2.11,2.11,0,0,1,.16.3,3.08,3.08,0,0,1-1.24,1.24,3,3,0,0,1,1.24,1.23,2.11,2.11,0,0,1-.16.3h0a1.31,1.31,0,0,1-.3.32,4.83,4.83,0,0,1,.16.56,2,2,0,0,1-.39.42,18.26,18.26,0,0,1,.69,4.54,18.26,18.26,0,0,1,.69-4.54,2,2,0,0,1-.39-.42,4.83,4.83,0,0,1,.16-.56,1.31,1.31,0,0,1-.3-.32h0l-.15-.3a3,3,0,0,1,1.24-1.23,3.08,3.08,0,0,1-1.24-1.24l.15-.3h0a1.52,1.52,0,0,1,.3-.32,4.63,4.63,0,0,1-.16-.55,1.74,1.74,0,0,1,.39-.42,18.35,18.35,0,0,1-.69-4.55A18.35,18.35,0,0,1,156.23,59Zm.13,5.73a1.72,1.72,0,0,0,.29-.31,12.08,12.08,0,0,1,.21,1.47v1.33A12.83,12.83,0,0,0,156.36,64.75Zm1.12,0a13.56,13.56,0,0,0-.51,2.49V65.91a14.32,14.32,0,0,1,.22-1.47A1.72,1.72,0,0,0,157.48,64.75Zm-.61-3.82v.21a2.07,2.07,0,0,1-.68.67H156A3,3,0,0,0,156.87,60.93Zm-.89,1h.21a2.07,2.07,0,0,1,.68.67v.21A3.11,3.11,0,0,0,156,61.92Zm1,.88v-.21a2,2,0,0,1,.68-.67h.21A3.11,3.11,0,0,0,157,62.8Zm.89-1h-.21a2,2,0,0,1-.68-.67v-.21A3,3,0,0,0,157.86,61.81ZM156.36,59a12.83,12.83,0,0,0,.5-2.49v1.33a11.8,11.8,0,0,1-.21,1.47A2.13,2.13,0,0,0,156.36,59Zm.83.31a13.91,13.91,0,0,1-.22-1.47V56.49a13.56,13.56,0,0,0,.51,2.49A2.13,2.13,0,0,0,157.19,59.29Z"/><rect class="cls-6" x="80.78" y="64.23" width="39.46" height="0.35"/><rect class="cls-6" x="80.78" y="64.93" width="39.46" height="0.35"/><rect class="cls-6" x="159.34" y="64.23" width="39.46" height="0.35"/><rect class="cls-6" x="159.34" y="64.93" width="39.46" height="0.35"/><rect class="cls-2" x="80.78" y="64.23" width="39.46" height="0.35"/><rect class="cls-2" x="80.78" y="64.93" width="39.46" height="0.35"/><rect class="cls-2" x="159.34" y="64.23" width="39.46" height="0.35"/><rect class="cls-2" x="159.34" y="64.93" width="39.46" height="0.35"/><path class="cls-7" d="M166,63.41a.14.14,0,0,0,.11-.07.64.64,0,0,0,.08-.14l1-2.11.07-.13a.22.22,0,0,0,0-.1.08.08,0,0,0,0-.08l-.08,0v-.1h.92v.1l-.07,0s0,0,0,.08a.11.11,0,0,0,0,.08.66.66,0,0,0,.06.12l1.13,2.21a.22.22,0,0,0,.07.09l.11,0v.1h-1v-.1l.05,0s0,0,0,0a.39.39,0,0,0-.05-.14l-.2-.4h-1.34l-.19.39a.4.4,0,0,0-.06.16s0,.06.11.06v.1H166Zm2.06-1-.46-1-.51,1Z"/><path class="cls-7" d="M173.81,61.53l-.1,0s0,0,0-.07a.19.19,0,0,0-.1-.14,1.26,1.26,0,0,0-.26-.12,1.72,1.72,0,0,0-.34-.06,2.11,2.11,0,0,0-.35,0,1.41,1.41,0,0,0-.4,0,1.06,1.06,0,0,0-.35.18.86.86,0,0,0-.25.31.92.92,0,0,0-.1.46,1,1,0,0,0,.1.46.86.86,0,0,0,.25.31,1.06,1.06,0,0,0,.35.18,1.44,1.44,0,0,0,.4.06,2.34,2.34,0,0,0,.56-.06,3,3,0,0,0,.43-.11v-.47H173a.21.21,0,0,0-.12,0,.27.27,0,0,0-.05.14h-.09v-.7h.09a.19.19,0,0,0,.05.12.22.22,0,0,0,.12,0h1.36v.1a.32.32,0,0,0-.13,0s0,.05,0,.09v.62a.08.08,0,0,0,0,.07l.08,0v.09a2,2,0,0,1-.38.21l-.4.13a2,2,0,0,1-.41,0h-.41a2.5,2.5,0,0,1-.69-.09,1.54,1.54,0,0,1-.54-.28,1.44,1.44,0,0,1-.35-.46,1.61,1.61,0,0,1,0-1.22,1.44,1.44,0,0,1,.35-.46,1.56,1.56,0,0,1,.54-.29,2.17,2.17,0,0,1,.69-.1,3.33,3.33,0,0,1,.46,0l.39.07.28.08.14,0a.11.11,0,0,0,.08,0l0,0,.07,0Z"/><path class="cls-7" d="M176.19,63.41a.19.19,0,0,0,.11-.07s0-.09.08-.14l1-2.11a1.39,1.39,0,0,0,.06-.13.16.16,0,0,0,0-.1.1.1,0,0,0,0-.08l-.08,0v-.1h.92v.1l-.08,0a.09.09,0,0,0,0,.08.19.19,0,0,0,0,.08s0,.07.06.12l1.13,2.21a.24.24,0,0,0,.08.09l.1,0v.1h-1v-.1l.06,0a0,0,0,0,0,0,0,.33.33,0,0,0,0-.14l-.21-.4h-1.33l-.2.39a.54.54,0,0,0,0,.16s0,.06.1.06v.1h-.77Zm2.05-1-.45-1-.52,1Z"/><path class="cls-7" d="M184.39,60.75a.15.15,0,0,0-.15.08,1.23,1.23,0,0,0-.08.12l-1,2.12-.08.17a.2.2,0,0,0,0,.09.08.08,0,0,0,0,.05l0,0v.1h-.83v-.1a.09.09,0,0,0,0-.08l0-.11a2.17,2.17,0,0,1-.1-.21l-1-2.12a.22.22,0,0,0-.07-.09l-.14,0v-.1h1v.1a.1.1,0,0,0-.07,0s0,0,0,.07a.37.37,0,0,0,0,.15l.11.23.7,1.49.68-1.47a2.72,2.72,0,0,0,.12-.25.43.43,0,0,0,.06-.15q0-.09-.15-.09v-.1h.95Z"/><path class="cls-7" d="M189,61.24a.11.11,0,0,0,0-.09.3.3,0,0,0-.16,0h-1.77v.67h1.07a.4.4,0,0,0,.17,0s.06-.07.06-.15h.1v.84h-.1a.18.18,0,0,0-.06-.16.4.4,0,0,0-.17,0h-1.07V63h1.83a.28.28,0,0,0,.13,0,.14.14,0,0,0,0-.1h.1v.74h-.1s0-.08,0-.09h-2.68v-.1l.07,0a.11.11,0,0,0,0-.08V60.85a.1.1,0,0,0,0-.08l-.07,0v-.1h2.49a.3.3,0,0,0,.16,0,.14.14,0,0,0,0-.1h.1v.72Z"/><path class="cls-7" d="M87.85,60.89q0-.09-.12-.09v-.1h.81v.1l-.06,0a.09.09,0,0,0,0,.07v2.37a.1.1,0,0,0,0,.08l.06,0v.09h-.81v-.09c.08,0,.12,0,.12-.1v-1H86.16v1a.1.1,0,0,0,0,.08l.06,0v.09h-.79v-.09c.07,0,.1,0,.1-.1V60.89c0-.06,0-.09-.1-.09v-.1h.79v.1l-.06,0a.09.09,0,0,0,0,.07v.89h1.69Z"/><path class="cls-7" d="M92.35,61.27a.1.1,0,0,0,0-.09.3.3,0,0,0-.16,0h-1.7v.65h1a.35.35,0,0,0,.16,0s.06-.07.06-.15h.1v.82h-.1a.18.18,0,0,0-.06-.16.35.35,0,0,0-.16,0h-1V63H92.2a.23.23,0,0,0,.13,0,.11.11,0,0,0,0-.1h.1v.71h-.1s0-.08,0-.09H89.76v-.09l.06,0a.1.1,0,0,0,0-.08V60.89a.09.09,0,0,0,0-.07l-.06,0v-.1h2.39a.3.3,0,0,0,.16,0,.1.1,0,0,0,0-.09h.1v.69Z"/><path class="cls-7" d="M96.44,63.08h-.06l-.15.06a2.15,2.15,0,0,1-.3.14,2.19,2.19,0,0,1-.41.14,2,2,0,0,1-.49.06,2.18,2.18,0,0,1-.63-.09,1.67,1.67,0,0,1-.54-.25,1.28,1.28,0,0,1-.51-1.05,1.34,1.34,0,0,1,.14-.61,1.21,1.21,0,0,1,.37-.44,1.71,1.71,0,0,1,.54-.27,2.18,2.18,0,0,1,.63-.09,3.6,3.6,0,0,1,.49,0l.38.09.26.09.11,0a.06.06,0,0,0,0,0l0,0,.07.06-.4.63-.06,0v0a0,0,0,0,0,0,0,.21.21,0,0,0-.1-.12,1.08,1.08,0,0,0-.24-.11l-.29-.08-.29,0a1.23,1.23,0,0,0-.42.07,1.06,1.06,0,0,0-.35.18,1,1,0,0,0-.24.29.87.87,0,0,0-.09.4.84.84,0,0,0,.09.4.89.89,0,0,0,.24.3,1.06,1.06,0,0,0,.35.18,1.56,1.56,0,0,0,.78,0,1.59,1.59,0,0,0,.33-.1,1.26,1.26,0,0,0,.26-.13c.06,0,.1-.1.1-.14a.14.14,0,0,0,0-.07l.07,0,.35.55Z"/><path class="cls-7" d="M100,60.89q0-.09-.12-.09v-.1h.81v.1l-.06,0a.09.09,0,0,0,0,.07v2.37a.1.1,0,0,0,0,.08l.06,0v.09h-.81v-.09c.08,0,.12,0,.12-.1v-1H98.32v1a.1.1,0,0,0,0,.08l.06,0v.09h-.79v-.09c.07,0,.1,0,.1-.1V60.89c0-.06,0-.09-.1-.09v-.1h.79v.1l-.06,0a.09.09,0,0,0,0,.07v.89H100Z"/><path class="cls-7" d="M103.51,60.67a2.06,2.06,0,0,1,.59.09,1.69,1.69,0,0,1,.54.26,1.4,1.4,0,0,1,.41.43,1.28,1.28,0,0,1,.16.63,1.21,1.21,0,0,1-.16.62,1.44,1.44,0,0,1-.41.44,1.67,1.67,0,0,1-.54.25,2.22,2.22,0,0,1-1.18,0,1.67,1.67,0,0,1-.54-.25,1.44,1.44,0,0,1-.41-.44,1.21,1.21,0,0,1-.16-.62,1.28,1.28,0,0,1,.16-.63,1.4,1.4,0,0,1,.41-.43,1.69,1.69,0,0,1,.54-.26A2.06,2.06,0,0,1,103.51,60.67Zm0,.48a1.12,1.12,0,0,0-.4.07,1.22,1.22,0,0,0-.36.18.83.83,0,0,0-.36.68.84.84,0,0,0,.1.39.91.91,0,0,0,.26.29,1.22,1.22,0,0,0,.36.18,1.36,1.36,0,0,0,.8,0,1.22,1.22,0,0,0,.36-.18,1,1,0,0,0,.26-.29.84.84,0,0,0,.1-.39.81.81,0,0,0-.1-.39.92.92,0,0,0-.26-.29,1.22,1.22,0,0,0-.36-.18A1.12,1.12,0,0,0,103.51,61.15Z"/><path class="cls-7" d="M109.81,60.7a1.61,1.61,0,0,1,.54.09,1.16,1.16,0,0,1,.43.25,1.21,1.21,0,0,1,.29.43,1.63,1.63,0,0,1,.1.61,1.66,1.66,0,0,1-.1.61,1.14,1.14,0,0,1-.72.68,1.91,1.91,0,0,1-.54.08h-1.74v-.09c.08,0,.12,0,.12-.1V60.89q0-.09-.12-.09v-.1ZM109.6,63a1.85,1.85,0,0,0,.43,0,.71.71,0,0,0,.3-.15.62.62,0,0,0,.18-.28,1.72,1.72,0,0,0,0-.9.71.71,0,0,0-.18-.29.6.6,0,0,0-.3-.14,1.81,1.81,0,0,0-.43-.05h-.82V63Z"/><path class="cls-7" d="M114.77,61.27a.1.1,0,0,0,0-.09.3.3,0,0,0-.16,0h-1.7v.65h1a.32.32,0,0,0,.16,0s.06-.07.06-.15h.1v.82h-.1a.18.18,0,0,0-.06-.16.32.32,0,0,0-.16,0h-1V63h1.76a.21.21,0,0,0,.12,0,.11.11,0,0,0,0-.1h.1v.71h-.1s0-.08,0-.09h-2.57v-.09l.07,0a.15.15,0,0,0,0-.08V60.89a.14.14,0,0,0,0-.07l-.07,0v-.1h2.39a.3.3,0,0,0,.16,0,.1.1,0,0,0,0-.09h.1v.69Z"/><path class="cls-2" d="M166,63.41a.14.14,0,0,0,.11-.07.64.64,0,0,0,.08-.14l1-2.11.07-.13a.22.22,0,0,0,0-.1.08.08,0,0,0,0-.08l-.08,0v-.1h.92v.1l-.07,0s0,0,0,.08a.11.11,0,0,0,0,.08.66.66,0,0,0,.06.12l1.13,2.21a.22.22,0,0,0,.07.09l.11,0v.1h-1v-.1l.05,0s0,0,0,0a.39.39,0,0,0-.05-.14l-.2-.4h-1.34l-.19.39a.4.4,0,0,0-.06.16s0,.06.11.06v.1H166Zm2.06-1-.46-1-.51,1Z"/><path class="cls-2" d="M173.81,61.53l-.1,0s0,0,0-.07a.19.19,0,0,0-.1-.14,1.26,1.26,0,0,0-.26-.12,1.72,1.72,0,0,0-.34-.06,2.11,2.11,0,0,0-.35,0,1.41,1.41,0,0,0-.4,0,1.06,1.06,0,0,0-.35.18.86.86,0,0,0-.25.31.92.92,0,0,0-.1.46,1,1,0,0,0,.1.46.86.86,0,0,0,.25.31,1.06,1.06,0,0,0,.35.18,1.44,1.44,0,0,0,.4.06,2.34,2.34,0,0,0,.56-.06,3,3,0,0,0,.43-.11v-.47H173a.21.21,0,0,0-.12,0,.27.27,0,0,0-.05.14h-.09v-.7h.09a.19.19,0,0,0,.05.12.22.22,0,0,0,.12,0h1.36v.1a.32.32,0,0,0-.13,0s0,.05,0,.09v.62a.08.08,0,0,0,0,.07l.08,0v.09a2,2,0,0,1-.38.21l-.4.13a2,2,0,0,1-.41,0h-.41a2.5,2.5,0,0,1-.69-.09,1.54,1.54,0,0,1-.54-.28,1.44,1.44,0,0,1-.35-.46,1.61,1.61,0,0,1,0-1.22,1.44,1.44,0,0,1,.35-.46,1.56,1.56,0,0,1,.54-.29,2.17,2.17,0,0,1,.69-.1,3.33,3.33,0,0,1,.46,0l.39.07.28.08.14,0a.11.11,0,0,0,.08,0l0,0,.07,0Z"/><path class="cls-2" d="M176.19,63.41a.19.19,0,0,0,.11-.07s0-.09.08-.14l1-2.11a1.39,1.39,0,0,0,.06-.13.16.16,0,0,0,0-.1.1.1,0,0,0,0-.08l-.08,0v-.1h.92v.1l-.08,0a.09.09,0,0,0,0,.08.19.19,0,0,0,0,.08s0,.07.06.12l1.13,2.21a.24.24,0,0,0,.08.09l.1,0v.1h-1v-.1l.06,0a0,0,0,0,0,0,0,.33.33,0,0,0,0-.14l-.21-.4h-1.33l-.2.39a.54.54,0,0,0,0,.16s0,.06.1.06v.1h-.77Zm2.05-1-.45-1-.52,1Z"/><path class="cls-2" d="M184.39,60.75a.15.15,0,0,0-.15.08,1.23,1.23,0,0,0-.08.12l-1,2.12-.08.17a.2.2,0,0,0,0,.09.08.08,0,0,0,0,.05l0,0v.1h-.83v-.1a.09.09,0,0,0,0-.08l0-.11a2.17,2.17,0,0,1-.1-.21l-1-2.12a.22.22,0,0,0-.07-.09l-.14,0v-.1h1v.1a.1.1,0,0,0-.07,0s0,0,0,.07a.37.37,0,0,0,0,.15l.11.23.7,1.49.68-1.47a2.72,2.72,0,0,0,.12-.25.43.43,0,0,0,.06-.15q0-.09-.15-.09v-.1h.95Z"/><path class="cls-2" d="M189,61.24a.11.11,0,0,0,0-.09.3.3,0,0,0-.16,0h-1.77v.67h1.07a.4.4,0,0,0,.17,0s.06-.07.06-.15h.1v.84h-.1a.18.18,0,0,0-.06-.16.4.4,0,0,0-.17,0h-1.07V63h1.83a.28.28,0,0,0,.13,0,.14.14,0,0,0,0-.1h.1v.74h-.1s0-.08,0-.09h-2.68v-.1l.07,0a.11.11,0,0,0,0-.08V60.85a.1.1,0,0,0,0-.08l-.07,0v-.1h2.49a.3.3,0,0,0,.16,0,.14.14,0,0,0,0-.1h.1v.72Z"/><path class="cls-2" d="M87.85,60.89q0-.09-.12-.09v-.1h.81v.1l-.06,0a.09.09,0,0,0,0,.07v2.37a.1.1,0,0,0,0,.08l.06,0v.09h-.81v-.09c.08,0,.12,0,.12-.1v-1H86.16v1a.1.1,0,0,0,0,.08l.06,0v.09h-.79v-.09c.07,0,.1,0,.1-.1V60.89c0-.06,0-.09-.1-.09v-.1h.79v.1l-.06,0a.09.09,0,0,0,0,.07v.89h1.69Z"/><path class="cls-2" d="M92.35,61.27a.1.1,0,0,0,0-.09.3.3,0,0,0-.16,0h-1.7v.65h1a.35.35,0,0,0,.16,0s.06-.07.06-.15h.1v.82h-.1a.18.18,0,0,0-.06-.16.35.35,0,0,0-.16,0h-1V63H92.2a.23.23,0,0,0,.13,0,.11.11,0,0,0,0-.1h.1v.71h-.1s0-.08,0-.09H89.76v-.09l.06,0a.1.1,0,0,0,0-.08V60.89a.09.09,0,0,0,0-.07l-.06,0v-.1h2.39a.3.3,0,0,0,.16,0,.1.1,0,0,0,0-.09h.1v.69Z"/><path class="cls-2" d="M96.44,63.08h-.06l-.15.06a2.15,2.15,0,0,1-.3.14,2.19,2.19,0,0,1-.41.14,2,2,0,0,1-.49.06,2.18,2.18,0,0,1-.63-.09,1.67,1.67,0,0,1-.54-.25,1.28,1.28,0,0,1-.51-1.05,1.34,1.34,0,0,1,.14-.61,1.21,1.21,0,0,1,.37-.44,1.71,1.71,0,0,1,.54-.27,2.18,2.18,0,0,1,.63-.09,3.6,3.6,0,0,1,.49,0l.38.09.26.09.11,0a.06.06,0,0,0,0,0l0,0,.07.06-.4.63-.06,0v0a0,0,0,0,0,0,0,.21.21,0,0,0-.1-.12,1.08,1.08,0,0,0-.24-.11l-.29-.08-.29,0a1.23,1.23,0,0,0-.42.07,1.06,1.06,0,0,0-.35.18,1,1,0,0,0-.24.29.87.87,0,0,0-.09.4.84.84,0,0,0,.09.4.89.89,0,0,0,.24.3,1.06,1.06,0,0,0,.35.18,1.56,1.56,0,0,0,.78,0,1.59,1.59,0,0,0,.33-.1,1.26,1.26,0,0,0,.26-.13c.06,0,.1-.1.1-.14a.14.14,0,0,0,0-.07l.07,0,.35.55Z"/><path class="cls-2" d="M100,60.89q0-.09-.12-.09v-.1h.81v.1l-.06,0a.09.09,0,0,0,0,.07v2.37a.1.1,0,0,0,0,.08l.06,0v.09h-.81v-.09c.08,0,.12,0,.12-.1v-1H98.32v1a.1.1,0,0,0,0,.08l.06,0v.09h-.79v-.09c.07,0,.1,0,.1-.1V60.89c0-.06,0-.09-.1-.09v-.1h.79v.1l-.06,0a.09.09,0,0,0,0,.07v.89H100Z"/><path class="cls-2" d="M103.51,60.67a2.06,2.06,0,0,1,.59.09,1.69,1.69,0,0,1,.54.26,1.4,1.4,0,0,1,.41.43,1.28,1.28,0,0,1,.16.63,1.21,1.21,0,0,1-.16.62,1.44,1.44,0,0,1-.41.44,1.67,1.67,0,0,1-.54.25,2.22,2.22,0,0,1-1.18,0,1.67,1.67,0,0,1-.54-.25,1.44,1.44,0,0,1-.41-.44,1.21,1.21,0,0,1-.16-.62,1.28,1.28,0,0,1,.16-.63,1.4,1.4,0,0,1,.41-.43,1.69,1.69,0,0,1,.54-.26A2.06,2.06,0,0,1,103.51,60.67Zm0,.48a1.12,1.12,0,0,0-.4.07,1.22,1.22,0,0,0-.36.18.83.83,0,0,0-.36.68.84.84,0,0,0,.1.39.91.91,0,0,0,.26.29,1.22,1.22,0,0,0,.36.18,1.36,1.36,0,0,0,.8,0,1.22,1.22,0,0,0,.36-.18,1,1,0,0,0,.26-.29.84.84,0,0,0,.1-.39.81.81,0,0,0-.1-.39.92.92,0,0,0-.26-.29,1.22,1.22,0,0,0-.36-.18A1.12,1.12,0,0,0,103.51,61.15Z"/><path class="cls-2" d="M109.81,60.7a1.61,1.61,0,0,1,.54.09,1.16,1.16,0,0,1,.43.25,1.21,1.21,0,0,1,.29.43,1.63,1.63,0,0,1,.1.61,1.66,1.66,0,0,1-.1.61,1.14,1.14,0,0,1-.72.68,1.91,1.91,0,0,1-.54.08h-1.74v-.09c.08,0,.12,0,.12-.1V60.89q0-.09-.12-.09v-.1ZM109.6,63a1.85,1.85,0,0,0,.43,0,.71.71,0,0,0,.3-.15.62.62,0,0,0,.18-.28,1.72,1.72,0,0,0,0-.9.71.71,0,0,0-.18-.29.6.6,0,0,0-.3-.14,1.81,1.81,0,0,0-.43-.05h-.82V63Z"/><path class="cls-2" d="M114.77,61.27a.1.1,0,0,0,0-.09.3.3,0,0,0-.16,0h-1.7v.65h1a.32.32,0,0,0,.16,0s.06-.07.06-.15h.1v.82h-.1a.18.18,0,0,0-.06-.16.32.32,0,0,0-.16,0h-1V63h1.76a.21.21,0,0,0,.12,0,.11.11,0,0,0,0-.1h.1v.71h-.1s0-.08,0-.09h-2.57v-.09l.07,0a.15.15,0,0,0,0-.08V60.89a.14.14,0,0,0,0-.07l-.07,0v-.1h2.39a.3.3,0,0,0,.16,0,.1.1,0,0,0,0-.09h.1v.69Z"/><path class="cls-2" d="M153.61,61.8A1.32,1.32,0,0,0,152.18,63v2.64a1.45,1.45,0,0,0,2.85,0V63A1.31,1.31,0,0,0,153.61,61.8Zm-.52,3.81V63c0-.46.09-1,.52-1s.51.64.51,1v2.64c0,.38-.07,1-.51,1S153.09,66.08,153.09,65.61Zm.65,1h0Zm.2-.14Zm0-4.38h0Zm-.21-.15h0Zm-.26,0h0Zm0,4.67h0Z"/><path class="cls-2" d="M151.13,61.91V59.27a1.45,1.45,0,0,0-2.85,0v2.64a1.45,1.45,0,0,0,2.85,0Zm-.92-2.64v2.64c0,.47-.08,1-.51,1s-.51-.64-.51-1V59.27c0-.38.07-1,.51-1S150.21,58.81,150.21,59.27Zm-.64-1h0Zm-.2.15h0Zm0,4.37Zm.21.15h0Zm.26,0h0Zm0-4.67h0Z"/><path class="cls-2" d="M129.24,66.83h0a2,2,0,0,1-1-.19c-.2-.1-.3-.41-.3-.92V63.66a3.9,3.9,0,0,1,.26-1.78,1.21,1.21,0,0,1,.29-.31h0l0,0a.86.86,0,0,1-.28-.26c-.18-.17-.27-.66-.27-1.45V58.6a7.16,7.16,0,0,1,.11-1.49,3.08,3.08,0,0,1,.24-.76v0h0a3.6,3.6,0,0,0-.76.1,1.36,1.36,0,0,0-.72.5l-.13-.17a1.4,1.4,0,0,0-1-.43h-.1a1.6,1.6,0,0,0-.72.18,1.14,1.14,0,0,0-.55.62v.11l0,0h0c.64,0,1,.1,1.17.28a1,1,0,0,1,.13.35h0a7.76,7.76,0,0,1,0,1.15v.23A6,6,0,0,1,125.5,61a1.33,1.33,0,0,1-.33.53h0l.11.11h0c.24.22.36.79.36,1.7,0,.34,0,1.1,0,2.07a2.24,2.24,0,0,1-.12,1c-.11.25-.51.38-1.17.38h0a.08.08,0,0,0-.07,0V67h0l.11.14a1.73,1.73,0,0,0,1.29.59,1.22,1.22,0,0,0,1.09-.58,1.42,1.42,0,0,0,1.11.59h.1a1.58,1.58,0,0,0,.94-.33,1.25,1.25,0,0,0,.39-.43v-.11S129.29,66.83,129.24,66.83Z"/><polygon class="cls-2" points="153.81 58.22 153.65 58.22 149.52 66.64 149.51 66.66 149.68 66.66 153.8 58.24 153.81 58.22"/><path class="cls-2" d="M138,61.33a2.77,2.77,0,0,1-.22-.64,11.36,11.36,0,0,0-.29-1.45,6.66,6.66,0,0,0-.46-1.14,4,4,0,0,0-.68-1,3.91,3.91,0,0,0-.66-.53,3,3,0,0,0-1.48-.42H134a3,3,0,0,0-1.11.24,3,3,0,0,0-.56.32,4.22,4.22,0,0,0-.68.66,5.21,5.21,0,0,0-.55.88,7.83,7.83,0,0,0-.47,1.36,9.63,9.63,0,0,1-.2,1,2,2,0,0,1-.78,1v0h0l.12.09a1.77,1.77,0,0,1,.36.51,4.91,4.91,0,0,1,.31,1,12.25,12.25,0,0,0,.32,1.54,5.46,5.46,0,0,0,.62,1.37,4.79,4.79,0,0,0,.53.68,4.71,4.71,0,0,0,.64.51,3,3,0,0,0,1.45.41h.23a2.88,2.88,0,0,0,1.34-.35,3.17,3.17,0,0,0,.84-.65,4.68,4.68,0,0,0,.89-1.43,7.33,7.33,0,0,0,.35-1.18c.08-.69.15-1.15.2-1.38a1.81,1.81,0,0,1,.33-.76.91.91,0,0,1,.33-.26h0v0h0A.91.91,0,0,1,138,61.33Zm-3.12.37c.29.22.44.87.44,1.91,0,.19,0,.47,0,.87a4.94,4.94,0,0,1-.17,1.61,1,1,0,0,1-1,.58,1,1,0,0,1-1-.54,2.31,2.31,0,0,1-.14-.54v0h0a16.44,16.44,0,0,1-.05-1.82,4.31,4.31,0,0,1,.22-1.59,1.34,1.34,0,0,1,.33-.5h0s0,0-.07-.07c-.33-.18-.49-.7-.49-1.55a1.7,1.7,0,0,1,0-.25,5.45,5.45,0,0,1,.17-1.85,1,1,0,0,1,1-.58,1.05,1.05,0,0,1,1,.45,2.2,2.2,0,0,1,.18.66c0,.14.05.69.07,1.61v.12a2.16,2.16,0,0,1-.52,1.44h0v0Zm1.77,4.75,0,0Zm.44-.72,0,0Z"/><path class="cls-2" d="M147,61.33a2.77,2.77,0,0,1-.22-.64,9.79,9.79,0,0,0-.29-1.45A6.66,6.66,0,0,0,146,58.1a4,4,0,0,0-.68-1,3.55,3.55,0,0,0-.66-.53,2.91,2.91,0,0,0-1.47-.42h-.24a2.92,2.92,0,0,0-1.67.56,4.22,4.22,0,0,0-.68.66,5.94,5.94,0,0,0-.55.88,8.77,8.77,0,0,0-.47,1.36,7.84,7.84,0,0,1-.2,1,2,2,0,0,1-.77,1l0,0h0c.08.07.11.09.12.09a1.6,1.6,0,0,1,.36.51,4.91,4.91,0,0,1,.31,1,12.25,12.25,0,0,0,.32,1.54,5.46,5.46,0,0,0,.62,1.37,3.58,3.58,0,0,0,.54.68,4.15,4.15,0,0,0,.63.51,3,3,0,0,0,1.45.41h.24a2.87,2.87,0,0,0,1.33-.35,3.17,3.17,0,0,0,.84-.65,4.92,4.92,0,0,0,.9-1.43,8.63,8.63,0,0,0,.34-1.18c.08-.69.15-1.15.2-1.38a1.81,1.81,0,0,1,.33-.76.91.91,0,0,1,.33-.26h0v0h0A1,1,0,0,1,147,61.33Zm-5.07,4.24a16.44,16.44,0,0,1,0-1.82,4.31,4.31,0,0,1,.22-1.59,1.27,1.27,0,0,1,.34-.5h0s0,0-.07-.07c-.33-.18-.49-.7-.49-1.55a1.7,1.7,0,0,1,0-.25,5.75,5.75,0,0,1,.17-1.85,1,1,0,0,1,1-.58,1.05,1.05,0,0,1,1,.45,1.93,1.93,0,0,1,.18.66c0,.14.05.67.08,1.61v.12a2.17,2.17,0,0,1-.53,1.44h0v0l.07,0c.29.22.44.87.44,1.91,0,.18,0,.43,0,.87a4.94,4.94,0,0,1-.17,1.61,1,1,0,0,1-1,.58,1,1,0,0,1-1-.54,2.31,2.31,0,0,1-.14-.54v0Zm3.71.89h0Zm.45-.73,0,0Z"/><path class="cls-2" d="M153.61,61.8A1.32,1.32,0,0,0,152.18,63v2.64a1.45,1.45,0,0,0,2.85,0V63A1.31,1.31,0,0,0,153.61,61.8Zm-.52,3.81V63c0-.46.09-1,.52-1s.51.64.51,1v2.64c0,.38-.07,1-.51,1S153.09,66.08,153.09,65.61Zm.65,1h0Zm.2-.14Zm0-4.38h0Zm-.21-.15h0Zm-.26,0h0Zm0,4.67h0Z"/><path class="cls-2" d="M151.13,61.91V59.27a1.45,1.45,0,0,0-2.85,0v2.64a1.45,1.45,0,0,0,2.85,0Zm-.92-2.64v2.64c0,.47-.08,1-.51,1s-.51-.64-.51-1V59.27c0-.38.07-1,.51-1S150.21,58.81,150.21,59.27Zm-.64-1h0Zm-.2.15h0Zm0,4.37Zm.21.15h0Zm.26,0h0Zm0-4.67h0Z"/><path class="cls-2" d="M129.24,66.83h0a2,2,0,0,1-1-.19c-.2-.1-.3-.41-.3-.92V63.66a3.9,3.9,0,0,1,.26-1.78,1.21,1.21,0,0,1,.29-.31h0l0,0a.86.86,0,0,1-.28-.26c-.18-.17-.27-.66-.27-1.45V58.6a7.16,7.16,0,0,1,.11-1.49,3.08,3.08,0,0,1,.24-.76v0h0a3.6,3.6,0,0,0-.76.1,1.36,1.36,0,0,0-.72.5l-.13-.17a1.4,1.4,0,0,0-1-.43h-.1a1.6,1.6,0,0,0-.72.18,1.14,1.14,0,0,0-.55.62v.11l0,0h0c.64,0,1,.1,1.17.28a1,1,0,0,1,.13.35h0a7.76,7.76,0,0,1,0,1.15v.23A6,6,0,0,1,125.5,61a1.33,1.33,0,0,1-.33.53h0l.11.11h0c.24.22.36.79.36,1.7,0,.34,0,1.1,0,2.07a2.24,2.24,0,0,1-.12,1c-.11.25-.51.38-1.17.38h0a.08.08,0,0,0-.07,0V67h0l.11.14a1.73,1.73,0,0,0,1.29.59,1.22,1.22,0,0,0,1.09-.58,1.42,1.42,0,0,0,1.11.59h.1a1.58,1.58,0,0,0,.94-.33,1.25,1.25,0,0,0,.39-.43v-.11S129.29,66.83,129.24,66.83Z"/><polygon class="cls-2" points="153.81 58.22 153.65 58.22 149.52 66.64 149.51 66.66 149.68 66.66 153.8 58.24 153.81 58.22"/><path class="cls-2" d="M138,61.33a2.77,2.77,0,0,1-.22-.64,11.36,11.36,0,0,0-.29-1.45,6.66,6.66,0,0,0-.46-1.14,4,4,0,0,0-.68-1,3.91,3.91,0,0,0-.66-.53,3,3,0,0,0-1.48-.42H134a3,3,0,0,0-1.11.24,3,3,0,0,0-.56.32,4.22,4.22,0,0,0-.68.66,5.21,5.21,0,0,0-.55.88,7.83,7.83,0,0,0-.47,1.36,9.63,9.63,0,0,1-.2,1,2,2,0,0,1-.78,1v0h0l.12.09a1.77,1.77,0,0,1,.36.51,4.91,4.91,0,0,1,.31,1,12.25,12.25,0,0,0,.32,1.54,5.46,5.46,0,0,0,.62,1.37,4.79,4.79,0,0,0,.53.68,4.71,4.71,0,0,0,.64.51,3,3,0,0,0,1.45.41h.23a2.88,2.88,0,0,0,1.34-.35,3.17,3.17,0,0,0,.84-.65,4.68,4.68,0,0,0,.89-1.43,7.33,7.33,0,0,0,.35-1.18c.08-.69.15-1.15.2-1.38a1.81,1.81,0,0,1,.33-.76.91.91,0,0,1,.33-.26h0v0h0A.91.91,0,0,1,138,61.33Zm-3.12.37c.29.22.44.87.44,1.91,0,.19,0,.47,0,.87a4.94,4.94,0,0,1-.17,1.61,1,1,0,0,1-1,.58,1,1,0,0,1-1-.54,2.31,2.31,0,0,1-.14-.54v0h0a16.44,16.44,0,0,1-.05-1.82,4.31,4.31,0,0,1,.22-1.59,1.34,1.34,0,0,1,.33-.5h0s0,0-.07-.07c-.33-.18-.49-.7-.49-1.55a1.7,1.7,0,0,1,0-.25,5.45,5.45,0,0,1,.17-1.85,1,1,0,0,1,1-.58,1.05,1.05,0,0,1,1,.45,2.2,2.2,0,0,1,.18.66c0,.14.05.69.07,1.61v.12a2.16,2.16,0,0,1-.52,1.44h0v0Zm1.77,4.75,0,0Zm.44-.72,0,0Z"/><path class="cls-2" d="M147,61.33a2.77,2.77,0,0,1-.22-.64,9.79,9.79,0,0,0-.29-1.45A6.66,6.66,0,0,0,146,58.1a4,4,0,0,0-.68-1,3.55,3.55,0,0,0-.66-.53,2.91,2.91,0,0,0-1.47-.42h-.24a2.92,2.92,0,0,0-1.67.56,4.22,4.22,0,0,0-.68.66,5.94,5.94,0,0,0-.55.88,8.77,8.77,0,0,0-.47,1.36,7.84,7.84,0,0,1-.2,1,2,2,0,0,1-.77,1l0,0h0c.08.07.11.09.12.09a1.6,1.6,0,0,1,.36.51,4.91,4.91,0,0,1,.31,1,12.25,12.25,0,0,0,.32,1.54,5.46,5.46,0,0,0,.62,1.37,3.58,3.58,0,0,0,.54.68,4.15,4.15,0,0,0,.63.51,3,3,0,0,0,1.45.41h.24a2.87,2.87,0,0,0,1.33-.35,3.17,3.17,0,0,0,.84-.65,4.92,4.92,0,0,0,.9-1.43,8.63,8.63,0,0,0,.34-1.18c.08-.69.15-1.15.2-1.38a1.81,1.81,0,0,1,.33-.76.91.91,0,0,1,.33-.26h0v0h0A1,1,0,0,1,147,61.33Zm-5.07,4.24a16.44,16.44,0,0,1,0-1.82,4.31,4.31,0,0,1,.22-1.59,1.27,1.27,0,0,1,.34-.5h0s0,0-.07-.07c-.33-.18-.49-.7-.49-1.55a1.7,1.7,0,0,1,0-.25,5.75,5.75,0,0,1,.17-1.85,1,1,0,0,1,1-.58,1.05,1.05,0,0,1,1,.45,1.93,1.93,0,0,1,.18.66c0,.14.05.67.08,1.61v.12a2.17,2.17,0,0,1-.53,1.44h0v0l.07,0c.29.22.44.87.44,1.91,0,.18,0,.43,0,.87a4.94,4.94,0,0,1-.17,1.61,1,1,0,0,1-1,.58,1,1,0,0,1-1-.54,2.31,2.31,0,0,1-.14-.54v0Zm3.71.89h0Zm.45-.73,0,0Z"/><path class="cls-6" d="M78,57.22a.16.16,0,0,0,0,.24l2.17,2.17H78.91L77.48,58.2a.2.2,0,0,0-.25,0l-1.48,1.49a.16.16,0,0,0,0,.24l1.48,1.49a.2.2,0,0,0,.25,0L78.91,60h1.21L78,62.16a.16.16,0,0,0,0,.24.18.18,0,0,0,.25,0L80.62,60h39.57a.16.16,0,0,0,.17-.17.17.17,0,0,0-.17-.18H80.62L78.2,57.22A.18.18,0,0,0,78,57.22Zm-1.83,2.59,1.24-1.24,1.23,1.24L77.36,61Z"/><line class="cls-8" x1="78.84" y1="59.81" x2="120.19" y2="59.81"/><line class="cls-8" x1="78.07" y1="62.28" x2="80.54" y2="59.81"/><line class="cls-8" x1="78.07" y1="57.34" x2="80.54" y2="59.81"/><rect class="cls-8" x="76.31" y="58.76" width="2.1" height="2.1" transform="translate(-19.63 72.22) rotate(-45)"/><path class="cls-6" d="M201.42,57.22,199,59.63H159.43a.18.18,0,0,0-.18.18.17.17,0,0,0,.18.17H199l2.42,2.42a.18.18,0,0,0,.25,0,.16.16,0,0,0,0-.24L199.5,60h1.21l1.43,1.44a.18.18,0,0,0,.24,0l1.49-1.49a.16.16,0,0,0,0-.24l-1.49-1.49a.18.18,0,0,0-.24,0l-1.43,1.43H199.5l2.17-2.17a.16.16,0,0,0,0-.24A.18.18,0,0,0,201.42,57.22Zm.84,3.82L201,59.81l1.23-1.24,1.24,1.24Z"/><line class="cls-8" x1="200.78" y1="59.81" x2="159.43" y2="59.81"/><line class="cls-8" x1="201.55" y1="62.28" x2="199.08" y2="59.81"/><line class="cls-8" x1="201.55" y1="57.34" x2="199.08" y2="59.81"/><rect class="cls-8" x="201.21" y="58.76" width="2.1" height="2.1" transform="translate(302.99 245.12) rotate(-135)"/></g></g></g></svg>