<svg xmlns="http://www.w3.org/2000/svg" viewBox="0 0 1499.45 603.65"><defs><style>.cls-1{opacity:0.05;}.cls-2{stroke:#fff;stroke-linecap:round;stroke-linejoin:round;stroke-width:2.02px;}</style></defs><g id="Capa_2" data-name="Capa 2"><g id="Capa_1-2" data-name="Capa 1"><g class="cls-1"><path class="cls-2" d="M1081.58,419.64c-1.4-.05-2.76-.1-4.11-.22-3,1.19-12.61,8.09-16.18,10.38a13.08,13.08,0,0,1-1.58-.38c-10.19,8.86-26.17,16.72-35.84,24.68-5.43,4.5-23,12.76-23.11,14.88-7.17,6.25-17,7.22-19.93,17.93-2.24-.25-1.78-.28-3.11-1.17-1.6,1.29-4.22,2.15-5.39,3.92-1.47,1.61-1.2.93-.33,2.8-1.55,3.36-5.48,5.5-6.71,7.61-1.91-.68-1.38-.41-2.18-2.18-3,1.43-3.24,3.77-7,3.11l.11,1.84c1.07-.31,2.08-.72,3-1.08a16.43,16.43,0,0,0,1,1.33c-1.43,1.63-2.8,3.21-4.32,4.83l-5,.24c-.44,4-1.46,5.63-1.12,8.77-4.32,4.82-7.61,9-14.71,9.89,1.5,1.53,1.06,2.3,1.72,4.07-2.2.59-1.86.55-3,2-3-.75-2.41-1.09-2.22-4.06a10.67,10.67,0,0,0-7.73,7.27c-6.85,2.35-9.39,6.09-8.53,12.42-1.54,1.44-1.44,1.73-5,2l-.39,1.87c.68.58,1.42,1.18,2.2,1.74.57,2.91-3.92,13.5-7.4,15.06l.2,4.09,5-2c3.71,2.08,9.37,4.74,10.57,9.12,1.57-4.06.92-5.68.61-9.64,1.16-.54,2.24-1.06,3.46-1.57,1,5.19,2.34,12.53,3.74,13.62-.68.48-1.3,1-2,1.42,1.64,2,3.11,2.85,4.35,5.31a17.83,17.83,0,0,1,1-1.88c4.14,0,7.34,2.93,8.85,6l1.08.82c-1.78.56-3.64,1.16-5.53,1.67,1.23,1.78,1.47,1.78,1.79,3.59,10.5-1.56,36.3,9,43.06-2.55l1,0v-.44c-13.17-1.57-18.39,2.56-33.17-1.13-.31-1.67-.82-2,.85-3.26-4.44-3.6-11.91-3.56-15.65-8C918.4,565.66,941,549,943,532c9.9-.94,7.17-8.26,14-14,3.19-2.63,5-1,8-4,1.76-3,3.7-6,5.62-9,13.12-9.88,30.07-20,41.38-34.15a5.32,5.32,0,0,0,.57.45c4.35-1.78,3.36-3.48,5.78-4.88,1.62-.89,4.27-.53,5.09-1.13,1.67-1.23,2.25-4.54,3.72-5.72,2-1.52,6.12-1,9.06-2.32,6.91-2.83,11-7,14.57-12.57,2.24.06.87-.23,2.65.78,1.19-2.8,10.63-6.66,11.35-6,7.69-8.74,13-20.21,27.25-22.94-.85-1.67.34-.92-1.09-1.74.68-2.18,1.06-.2,1.84-2.87C1086.19,412.92,1085.58,416.26,1081.58,419.64Z"/><path class="cls-2" d="M1360.48,189.73c.72.44,1.4.93,2.12,1.38,3.46-2.49,5.93-4.47,11-3.38.43-3.14,4.88-6.38,6.86-8.62a15.68,15.68,0,0,1,.31-6.81c-7.92-.31-16.32,3.07-20.7,8C1360.41,183.87,1362,186.91,1360.48,189.73Z"/><path class="cls-2" d="M1494.67,250.24c-8.48-.78-16.66,3.53-23.11,2.63l-1.62,2.65c-15.56-.31-25.17,4.91-38.94,7.47-2.7-.31-5.53-.6-8.18-.87-11.38,4.13-21.91,9.16-34.49,11a36.65,36.65,0,0,0-3.89-2.22c-.14.75-.36,1.48-.55,2.22-8.8,1.21-16.28,4.9-24.67,5.75-.79-.34-1.44-.67-2.22-1-.74,2-3.38,3.67-7.1,4.42a10.74,10.74,0,0,1-.51-1.29c-7.72,6.12-24,2.37-34.55-1.32-2.8.85-3.34.6-3.85,3.48-2.94-.61-4.2-1.52-4.92-4-3.14-.38-5.12,2.95-9.33,1.36h-1.11a28.34,28.34,0,0,0,1.11-2.66c-2,.39-2.55.62-3.84-.85-1.61,1.54-1.16,1.7-4.87,1.81-.1-.17-.17-.32-.26-.49,2-2.29,4.56-2.51,5.84-4.84.72-2.32-12-3.32-16-3.84-.55-1.36-1.09-2.66-1.66-4,13.81-4.4,31.3-12.48,49.27-20.69,10.65-4.88,25.4-5.73,36.18-11.29,2.68,2.61,7.31-1,11.58,1.29,2,2,4,4,6.1,6,6.76,4.55,35.61,9.95,44.33,3.91,12.52-8.47,9.81-25.4,13.89-34.17a8.38,8.38,0,0,0-5.16-4.88s-8.48,3.92-10.53,3.34c-1-1.4-36.3,6.37-43.55,9.13-15.56,6-32.61-21.72-39.35-38.07,4.6-11.13,10.75-11.5,15.73-21.57-.36-1.33-.78-2.7-1.09-4.06-3.65-.07-5.94,1.29-8.36,1.77l-13.38-3.69a10.59,10.59,0,0,1-1-.61c-3.36,1.08-6.35,4.61-11.73,5.46-11.93,2-23.8-1.47-35.17.65-13.21,2.53-15.6-3.16-24.54,1.33-6.21-6.57-13.26,2.95-20,1.55-12.66-2.5-28.26,1.63-40.1,10l2,5.73c8.24,2.31,15.83-1.31,22.11,3.11,4.83-7,34.44-4.2,45.48-8,2,1.7,3,3.28,4.71,4.82-.18,3.67.16,5.56-1.22,7.85-3.55,5.07-23.4,12-31.53,16.14-18.29,9.25-49.78,24.51-71.64,9.06-5.51-3.83-5-16.6-6.69-21.28,2.66-3.46,4.81-11.65,8.64-17,20.46-27.61,87.87-69.13,110-72.84,3.38-.56,6.62-3.41,9.69-5.61,5.53-3.91,17.34,4.72,20.77,6.38a5.37,5.37,0,0,0,2-4.39c1.43-.88-3.69-5.49-4.48-6.52l1.54-17.37c-.45-.48-1-.83-1.43-1.26-6.59,4.16-14.25,2.46-16.37,1.26-1.59,1.71-1.69,1.57-1.81,3.82-2.1-.2-4.9-2.22-5.51-2-5.43,6.76-27,11.25-28.54,17.43a4.78,4.78,0,0,1-6-.38c-2.75,6.91-25,14.83-32,20.62-.92.68-.65.88.44,1.16.29.88-2.61,1.53-2.69,1.53s-8.88,7.5-10.82,7.21c.25.61.58,1.19.83,1.75-8.1,1.32-40,30.91-47.24,37.74-.39.87-1,.65-.06,1.16-1.49,2.4-4.44,2.69-6.06,4.67-1,3.93-2,7.8-3.09,11.68-3.91,8.53-8.42,17.78-14.58,25.12,1.52,3,6.88,14.27,11.87,15.39-.21,1.49,0,.65-.7,2.22,19.93,15.34,53.31,15.67,77.39.34.44-.44,4.85.26,5.53.85,7.27-7.14,18.6-5.49,26.76-9.59,13.24-6.65,28.12-20.85,40.41-29.18,6.68-.31,13.24-.65,19.9-1,4.56,3.84,6.84,8.94,9,13.55.51-2.05,2.29,1.26,2.36,1.29,4.59,3.06,5.92,6.87,8.29,10.14.53-.54,6.69,2.37,7.8,3.31-.29.58-.39,1.11-.68,1.69.8,1.45,9.74,10,12.27,10.91-7.92,12.46-35.58,12.46-47.92,17.9,1.91-3.06-10,5.77-11.61,3.82-1.7-2.27-39.12,13.47-45.36,11.88.31.53.55,1.14.85,1.72-4.78.82-9.64,1.68-14.45,2.5-5.82-3.59-28.43-6.61-34.7-5-2.8.72-13.12-3.8-13.38-4.78-1.33.69-2.73,1.37-4.2,2l.69-2.24c-9.36,3.38-46.37-4.9-60.18-10-1.91.63-3.79,1.28-5.73,1.87-2,.22-13.64-3.22-16.45-3.8.22.78.47,1.53.75,2.33-.53.88-1.13,1.8-1.71,2.69-1-2.16-1.13-1.81-.61-4.58-5.33,2.19-6.63-3.24-10.82-4.59-12.6,3.89-13.32-1.79-24.8-1.52-18.38.34-28.65.19-46.47,2.19-.62-1.2-1.2-2.36-1.81-3.54a15.19,15.19,0,0,0-5.33,3.09l-2.83-3c-2.08-.54-9.47-.32-13.82,1.4l.3-2.8c-4.77-.18-7.88,1.11-8.63,4.52-2.78-.54-2.24-.61-4.4-1.94-.69-.72-3.2.19-5.19,1.33-1-1-1.9-1.93-2.83-3-7.38,7.46-11.63-.81-21.58,2-7.13,2.07-14.37,3.64-19.76,5.58-.75-.56-2-2.08-4-1.4-7.92,2.92-16.44,9.94-22.73,9.35.06,4-.14,5.36-2.74,7.14a14.52,14.52,0,0,1-1.63,1c-.92-1.19-1.78-2.34-2.68-3.53-1.81,1.23-3.79,2.23-4.39,3.63-.94.84-.94-.08-.61,1.11-8.9,4.23-10.69,10.58-17.1,14.23l.1,3.35a6.38,6.38,0,0,0,.72-1.06c4,1.18,3,2.63,2,6.32l-2.68.37c-1.54,1-1.09.07-.82-1.71-4.23,1.71-4.33,6.61-6.73,12.57-3.08,2.42-1.79,3.82-3.27,7.74,0,0,14.4,16.8,22.46,17.17l-.72,2.26c14.39,5.93,29.53,8,41.13,5.93,3.94-.68,11.91,2.12,16.45,3.84,4.37,1.69,12.66-1.76,19.59-2.18,1.78.89,3.55,1.72,5.4,2.59,5.24.43,10.63-4.42,16.43-1.81,2.51,1.18,3.74,3.21,5.24,3.71,2.34.82,3.76-2.67,4.86-3.06,3.2-1.23,7,2.51,10.53,1.8,9-1.8,16.39-.21,24-.79,9.76-.72,51.26-7.92,55-5.63.31-.87.5-1.81.79-2.73,2.25.08,15-1.38,15.78-.72l.22-2.29c1.61.62,30.31-3.78,36.12-5.61-1-.36,10.35-8.53,15-7.6,2.54.55,21.16-8.8,28.7-7.25,6.64,1.42,40.48-11.33,47.61-14.54,0,0,36.32-5.2,39.84-6.59,2.28,1.31,3.45,1.54,3.68,3.6v.86c-3.29-.17-4.4.29-6.5,2.17,3.09.68,5.29,1.26,8.17,1.75,2.67-1.21,4.44-1.53,5-3.07,2.7.46,1.81-.2,2.75,1.74,1.21-.24.67-.1,2.24-.89,7.83,5.46,7.58,3.93,19.11,5.72.48.6,1.13,1.18,1.61,1.72l-32.33,9.25h-10.92c-7.59,1.59-17.92,6.66-25.15,7.89-1.87-.48-3.74-.87-5.57-1.31a217.6,217.6,0,0,1-27.92,7c-2.39-.16-4.74-.33-7.08-.46-5.55,1.1-9.83,5.18-14.32,6.6-9.28-3.67-26.45,2.7-34,4.81-31.61,8.9-68.71,11.56-94.75,22.82-11.5-3.89-26.69,3.75-36.8,7.51,3-1-39.25,8.31-49.83,8.31.75-.15,1.43-.27,2.15-.46a15.88,15.88,0,0,0-13.64,0c-7,0-8.51-3.62-12.64-5.67-3.07-1.48-9.54-.61-12.63-2.18-1.49,1.3-1.88,1.48-4.27,2.18-.24-1.19-.41-2.32-.66-3.5-9.92.24-58.8-6.39-63.51-10.12-.41.16-.75.31-1.07.45-8.74-1.13-23.84-1.71-32.92-5.74a15.36,15.36,0,0,0-.53,1.81c-8-1.87-14.22-7.37-22.51-8.77-10.14-1.81-25.12,1.21-36.13-1.81-4.08-1.11-3.63-4.35-6.61-5.71H753.67c-7.3-2.09-17.54-5.35-26.87-6.56H706.5c-5.18-1-8.7-5.13-15.27-5.71-4.4,1.16-8.82,2.33-13.16,3.53-.92-.94-1.84-1.79-2.75-2.65-11.45,1.32-36.84-4.42-55.89,0-17,3.93-38.19,12.43-55.94,21-3.55,1.74-2.93,6.82-6,8.84-2.25,1.48-6,1.64-8.19,3.05C531.51,353.54,536.87,373.15,546,385c1.3,1.69,1.26,7.15,3.86,9.18,1.91,1.53,5.7,1.21,7.64,2.64,2.7,2,1.74,4.54,4.44,5.74,3.58,2.15,7.13-.58,9.86.85,3.38-.34,3.66-.72,3.76,2.63,1.52-.75,3-1.5,4.4-2.19,6.15,3.16,14.49,4.32,15.4,10.07,9.31-1.69,21.33,3.93,27.37,5.29-.45-1.5.24.14,1.07-1.74,20.88,7.89,43.68,2.9,62.52-.44,4.74-.87,15,4.06,18.05-2.63,5.47.58,10.69-.41,14.29,1.3,6.77-4.05,22.66-.45,34-3,5.8-2.2,11.67-4.42,17.52-6.62,11.15-2.24,17.05-.1,28.44-1.73,4.16-.61,7.08-2.54,9.88-3.12,9.56-1.81,19-.34,29.55-2.18,13-2.19,28.34-7.32,42.77-6.56,5.5-2.08,10.47-5.93,15.36-7.45,3-1.4,6.35,2,10.46.83.11.34.33.62.43.89a11.78,11.78,0,0,1-1.54.43h2.74l-.55-2.15c15-.87,21.37-6.75,35.67-6.57-.46-.77-.77-1.51-1.13-2.24,3.28-1.74,8.88-1.33,12,0,.14-.39.34-.84.53-1.31.1-2.8,6.74-1.25,10.36-1.3-2.56-.31-5-.56-7.6-.85,1.8-2.26,12.6-.46,12.6-.46,2.34-.64,2.27-1.2,3.84-2.21,1.67,1.13,16.84.09,22.46,0,.75,2.05,1.43,4.1,2.16,6.13q-32,13-64.08,25.89c-44,21-89,42-128.23,66.27l-24.12,19.33a210.56,210.56,0,0,0-35.1,27.68c-3.25,2.5-6.56,4.94-9.85,7.45-3.89,5.37-5,12.33-8.24,17.52,1.84.6,3.68,1.16,5.53,1.8-1.18.22-2.19.54-3.3.85-.22.27-.39.59-.58.85,3.25,2.76,3.6,4.81,8.21,6.59,2-.87,4-1.74,6-2.63,2,1.21,2.26,2.25,4.92,3.06,2.25,1,18.8-4.12,22.52-7,13.18,6.72,23.45-10.15,33.39-6.11,3-3,23.92-9.26,24.13-9.23.22-2.19.17-1.76-.53-3.5l8.17-1.77c1.15,1.17.38.25.51,2.18,4.63-1.16,7.31-3.87,10-5.24s11.82-2.82,14.81-4c3.79-1.52,7.56-6.16,11.52-7.46,2.49-.29,5.05-.61,7.58-.85,10.44-5.94,20.65-11.78,32.39-16.25L911.45,496h1.13c.39.58.75,1.2,1.14,1.78,2.51-3.11,5.43-2.68,8.71-4.83,2-1.32.13-3.13,1.74-4.82,3.29-3.77,10.27-6.7,15.34-9.28-.91,1-1.9,2.06-2.85,3.12,3.72-.24,4.37.45,7.16,1.78.18-2.39.41-4.73.59-7,10.94-9.36,33.7-18.09,47.12-26.35,8.75-5.43,12.92-13.73,24.64-15.36-.33-.74-.7-1.45-1.08-2.19,1.08-.56,4.75-2.25,8.33-3.87a1.29,1.29,0,0,0-.1-.51,2.45,2.45,0,0,1,.31.46c4-1.81,7.9-3.52,7.9-3.52,2.56-1.84,1.62-1.06.56-3.1,1.61-.48,3.23-.86,5-1.32.53,1.59.36,1.28,1.57,2.17,1.78-1.95,2.53-1.84,7.13-3a8.23,8.23,0,0,0-.47-.89c-.46-1.5-1.09-1.29-2.77-2.62l3.24-2.67c2.74.26,2.16-.07,3.32,1.33,2.32-1.43,1.87-2.79,6.62-3.07-.55-.7-1.13-1.43-1.68-2.15-1,.43-1.82.86-2.8,1.27,1.3-1,2.63-2.05,3.93-3.06L1020,427.11c-35.15,16-71.43,40-111.2,56.65-12.63,5.43-25.19,10.78-37.78,16.18-3.14,1.33-10.75,5.53-13.18,4-13,10.53-70.5,27.77-87.67,26.76-.6-.58-1.1-1.18-1.69-1.74.86-1.64,19.83-27.68,25.23-21.93,4.61-1.11,6.18-7.27,10.39-9.23,1.18.27,2.24.58,3.35.89,4.25-1.3,3.43-4.75,6-7,2.32-2.06,8.72-3.34,11.54-5.29s3.92-5.43,6.57-7.49c9-6.95,10.84-3.36,15.39-14.9,1.59-.27,3.21-.58,4.9-.83-.58,1.58-.58,1.19-1.69,2.16a16.89,16.89,0,0,1,1.69.46c3.38-2.13,6.52-4.78,8.26-7.93,1.78.46,3.69.89,5.46,1.31,1.18-2.44,12.29-9.81,13.69-8.29,5.49-3.57,14.61-9.61,16.48-15.41,3.49,1.09,7.48-.21,9.25.48,5.64-3.9,8.06-9.6,17-8.8l-.57-2.18c1.66-.73,8.25-6.36,12.7-4.83-.35-1.4.58-.31-.49-1.3,0,0,18.87-11.65,20.75-12.35.78-.34.27-.48,2.66.92,11.2-7.3,31.54-18.77,45.5-21.08-.49-.29-1-.56-1.64-.9,4.73-2,32-10,34-6.56.75-.4,1.41-.88,2.23-1.29,2.39,2.56,3.14,1.52,6.56,3v-1.74c.3-.27.75-.58,1.09-.88,2.79,1.64,6.12,1.94,6.51,4.4a18,18,0,0,0,7.21-.87c4.33,0,5.53,1.38,5.49,3.52,6.74.39,11.2,1.72,15.81,0,2.63,2.11,6.89,3,9.31,5.24,2.53.66,6.63-1.95,11-2.19v2.66c6.69-1.11,8.67,1.37,16.45.86v1.29c-4.64,5.29-13.41,8.47-19.76,10.12,1.33,2.09,2.76,1.25,2.15,3.91,6.36-.54,12-1.21,15.39-.44v-5.67h2.22c1.2,2.8,20.22-3.74,23.55-4.81,7.9,6,26,5.08,37.33,7.88,2.27-.27,4.69-.58,7-.87,7,1.8,14.32,1,24.16,2.65,3.64-.34,7.24-.6,10.86-.92,29.42,5.87,58.79,4.54,80.67,3.14-1-3.86,2.2-6.66,4.35-9.25-15.49-15.91-63.7-23.21-100.31-21.06,5.9,3.89,21,1.19,29.08,3,14.9,3.49,21.78,8.3,31.71,11,2.73.41,5.53.88,8.26,1.29,1.4,1.06,8.29,4.63,13.17,4.83.41,4.15-7.47,7.09-13.7,6.16,1.79-.75-16.1-.15-17-.44-9.32-3.16-18.71-2.56-32.36-2.63V399c-2.58.7-5.43,1.48-6.57,3.55-3.06-.79-2-.36-2.17-2.63-3.21-.22-4.26.32-7.2,1.26h-3.24c.2-.85.37-1.74.53-2.59a37.07,37.07,0,0,1-14.22-2.19c-1.3,1.76-1.88,2.19-4.37,3-.82-1.89-1.12-1.16-2.22-3-12.28,1.11-20.3-1.51-31.18-4.84h-1.14c.55-1.9,1.14-3.81,1.67-5.74,1.85-3,5.33-2.52,8.83-1.7.32-1.78.63-3.56,1-5.3.79-.27,1.47-.58,2.19-.88a15.08,15.08,0,0,0,4.37,1.79c1.72-1.79,3.33-3.55,5-5.29,5.84-1.72,11.4-2.34,20.28-5.27,2.08-.62,1-.77,1-2.19a6.51,6.51,0,0,1,3.31.45c-.14-.45-.34-.89-.46-1.34,4.42-2.93,15.17-3.55,19.64-5.68,3.41-1.55,2.41-3.77,5-5.68,1.55-1.2,1.88-1.06,3.79-.92a7.8,7.8,0,0,0,.65-.91c-.41-.39-.75-.8-1.2-1.26-3.48.78-35.27,10.51-37.25,11.83-.91,1.19-1.86,2.35-2.68,3.51-3.11,1.16-7.72.65-9.92,1.78-4.9,2.52-14,11.19-22.4,8.77-1.1,1.29-.55.48,0,2.2-10,8.41-24.19,6-33.52,10.07h-.45v-4c-4.91-.94-6.91-2.78-10.51-3.92-6.31-2.15-19-1.34-28.94-3.08-12.63-2.9-25.19-5.81-37.85-8.77v-.42c3.19-2.34,7.47-2.78,12.66-3.54-.55.55,14.25-4.55,21.86-6.57l24.68-3.95c28.65-8.83,61.45-14.1,88.21-8.76.58-1.31,1.13-2.65,1.66-4a10.51,10.51,0,0,1-3.33-6.57c-4.61-1-4.37-1.11-8.14-3.53-.46.58-.77,1.19-1.18,1.7-1.06-.22-2.06-.51-3.28-.82v-.49c1.39-.73,44.82-11.35,47.14-11.37v-.39c-1.24-.2-2.54-.34-3.89-.49l14.88-.87c13.25-3.55,29.08-9,43.84-12.27,6.44-.76,12.75-1.49,19.15-2.22,6-2.17,12.07-4.41,18.13-6.56.13-1,.32-2.05.49-3.05a29.22,29.22,0,0,0,9.35.87c.45-1.2,0-1.42-.54-2.65,3.65-1.77,37.31-4,39.47.45,3.19-.45,4.28-2.27,6-2.67,4.58-1,9.34,1.69,15.34-1.29,1.25,1,2.53,2.08,3.84,3.05a19.54,19.54,0,0,1,15.31-.46c2.58-1.11,4.17-2.18,4.46-3.92l3.27.44c1.34,1.19.76,1.09.55,3.07.75.14,1.47.27,2.15.41,3.64-3,20.82,1.43,23.65.92,19.42-3.79,40.06-1.53,49.22-18.91h-3.21c.93-3,2.84-4,4.88-6.58,2.46.44,1.66,0,2.74,1.36.78-.89,1.5-1.79,2.3-2.63,2-1.93.1-5.65,3.77-7.47A53.46,53.46,0,0,1,1494.67,250.24Zm-78.79-33,3.51.24c.56,6.49-5.32,17-9.92,19.15-7.11,3.28-20.35-2.56-23.12-8.77C1394.94,218.12,1405.12,221.35,1415.88,217.25Zm-215.81,54.38c-8.24-4.27-21.69,4.62-31.69,7.09-5.36,1.34-11.33,3.44-18.21,4.51-1.33-.44-2.68-1-3.94-1.4-2.06.82-2.29,2.73-5.44,3.65-2,.55-9.78-.3-10.19-.07-2.84,1.56-6.62,4.48-10.72,5-.61.05-16.33.66-16.33.66-3.94,2.39-7.19,5.76-13,3.71l-.2,1.67c-3.69,1.81-9.15-.31-12.29,1-2.53,1.16-5,2.3-7.44,3.53-1.47-.74-2.94-1.35-4.41-2l-5.93,3.59c-1.06-.62-8.4-1.2-8.5-1.1-5.12,3.08-18.47,6-25.16,6.93-1.5.24-5.63-2.71-8-1.09-9.61,6.59-43.84,7.75-53,6.88-15.57-1.56-20.23,1.72-36.3-3.36-.15,0-5.36.93-5.79.75-7.29-4.1-19.15-8.2-25.8-12.36-3.21-2-4.64-5.73-9.59-6.79,3.51-16,34.78-33.72,44.49-35.67,4-.79,16.5-5.8,19.2-3.31l5.78-8.12c4-.35,7.91-.62,11.83-1-2.22,1,8.14,1,12.61.8,8.86-.44,21.28-1.5,31.35-2.62,8.79-.92,36.58,4.09,40.71-.23,7.2,3,14.83.23,20.22,1.8,32,9.09,62.8,9.69,94.41,14.35,9.59,1.4,21.61,8,30.14,4.71l4.71,3.69C1202.38,268.4,1201.22,270,1200.07,271.63ZM925.19,375.35c-3.41.45-4.37.45-7.12-.47l-.56,2.21c-2.56-.66-1.4-.37-2.64-1.74a70.33,70.33,0,0,0-7.84,3.9c-.43-.58-1-1.13-1.54-1.71-3.78,1.59-10.92,2.1-13.75,1.29-1.47,1.35-2.83,2.65-4.39,4-7.76-3.46-37.59,4.73-48.7,7.43-13.4,3.29-33.33,5.47-47.14,7.45-3.67.58-6.57-1.79-12.1-.87-23.26,3.89-44.27,7.31-67.38,9.63v.44c2.19,2.46,3.65,3,6.61,4-.77.41-1.49.86-2.24,1.29h-.54c-1.92-1.5-3-1.67-2.77-3.94-1.4.15-2.83.32-4.35.43.73-.58,1.52-1.16,2.2-1.78v-.44c-2.66.92-3.5,1.88-7.13,2.22h3.82c-1.59,3.79-55.43,3.63-65.23,2.63-.06,2.21-.47,2.11-2.69,3.55l-1.64.4c-1.26-2.13-4.23-3.63-5.5-5.7-11.87.84-60.79-15.66-62.46-21.5-1.33-.9-5.46-1.6-7.65-2.66-7.23-3.26-7.64-8.88-11-14.92,12.81-17.85,32-29.66,53.18-38.57,14.07-5.94,30-5.32,40-11,.34.64.68,1.17,1.05,1.75,5.47-3.48,13.31-.06,18.13-2.18h.55c4.7,3,21.16.92,31.23,2.66a73.8,73.8,0,0,1,14.2,4.37c5,.58,9.89,1.2,14.84,1.74,3.69.94,6,3.89,8.69,4.85,1.86-.14,3.74-.33,5.51-.45,5.72,1.61,11.37,3.26,17,4.83h16.95c8,1.2,15.29,3.47,25.3,3.5,6.18-.29,12.4-.58,18.61-.85,24.33,4.91,55.91,9.59,83.25,15.34q24.21,4.6,48.26,9.22C942.58,369,926.88,369.93,925.19,375.35ZM1315.9,294.6v-1.78l4.44.41Zm153.46-27.21c-4.23,7.24-9.23,8-17.48,11.78-5.39,2.52-13.77,7.69-21.43,8.8-15.68-.42-31.44-.85-47.12-1.29,10.53-11.5,60.53-7.17,66.81-18,7.44,1.19,15.81,1.53,20.35-3.07C1470.11,266.22,1469.74,266.8,1469.36,267.39Z"/><path class="cls-2" d="M547.45,185.44c3.17,11.91,23,1.23,30.44-4.62.6-.53,1.3-1.08,1.91-1.56a54.51,54.51,0,0,1,17,.43A10.92,10.92,0,0,0,603,181l.65.17,4.11.12c.78,3-7.56,17.92-8.86,21.08,1.77.26,3.64.5,5.5.73,3-2.9,14.76-20.34,17.74-23.26,3.38-1.82,3.18-1.82,9-1.58-.27,2.2-.58,4.36-.85,6.55-2.73,1.74-7.29,4.9-9.8,6.91,1.57,2.1,2.36,2.49,2.56,6.06,9.08-5,13.79-10.68,21.75-20.34,5.22-6.35,10.68-11,15.63-18.13,11.23-16.07,23-33,32.87-49.93l3.46.1.67.61c-5.38,24.58-17.43,79.16,2.42,89,4.93,5.37,15.46-2.1,18.74-6.44a13.39,13.39,0,0,0,1.42-1.17c-2.72-2.14-5.89-6.44-6.66-6.71.46-2.46.29-1.13-3.4-1.28-13.73-23.47-3-77.4,11.27-111.95,2.9-6.92,4.93-24.36,11.77-27.79-1.5-4.42,3-5.36,1.5-9.81-2.73.72-.61,1-2.73-.62-1.53-1.16,2.12-10.37,1.74-13.09-7.13,3.43-10.82,9.31-13.94,15.76h.5a3,3,0,0,1-.72.35c-2.58,5.35-4.69,11.05-8,16.2-6.47,10.07-9.75,21.11-17.17,31.83-1.18,1.69-4.42,1.59-4.85,2.27-1.48,2.24-.51,6.72-3,10.07-3.25,2.34-5.71,9-9,11.3-3.13,3.85-6.37,8.8-10.13,14,.35-.35.55-.55.65-.55-2.35,6.94-27.27,25.72-31.19,31.26,1.53.55.68-.52,2,1.27-1.33,7.13-7.54,9.54-14,11.59.35-1.45-1.44-4.87-4.68-6.08-.15-.15-17.56,4.27-25.91,6.43,5.74-6.55,6-8.6,9.8-15.63,5.12-9.73,17-28-.61-29.08-4-.29-24,23.67-25.19,33.59-.21,1.77-.81,5-.18,7.47-1.84,1.67-6,5.51-6.82,7.29-9,2.25-20.75,8.91-33.11,7v.58c.61,3.92-5.19,5.32-9,3.34.85-12.62,5.56-21.74,5.12-37.42-1.3-.5-2.66-.91-4.06-1.35-9.29,1.35-19.32,13.84-26.56,18.43-20.1,13-24,24.1-48.43,33,.92-1,1.84-2,2.76-2.94-4.26-.49-8.63-1-13-1.53-8.43-4.22-9.35-16.44-16.55-21.24-9.52-6.46-22-2.47-31.4-4.45-4,3.35-7.92,6.59-11.92,9.88h-.71c1.36-5.43,5.12-5.3,7.75-7.61-.85-.52,0-2,1-3.69,29.18-17.32,58.06-34.91,85.91-52.18-.28-1.33-.55-2.56-.82-3.86-1.44-1-2.83-2-4.27-3-25.9,13.59-51.51,27.43-77.16,41.17-.42-.13-.84-.27-1.28-.39l2.36-11.91c-.41-.22-.85-.39-1.33-.68-8.1,4.75-14,15.07-18.74,23.16-33.93,18.05-68.06,35.73-103.15,52.1-.54-1.26-1.16-2.59-1.74-3.92.58-2.29,1.2-4.65,1.74-7v-.65h-3.48c1-6.21,4.34-4.12,7.07-7.73.68-.87,3.61-20.24,4.16-21.73-.37-2.37-.82-4.74-1.19-7,2.86-9.14,6.79-13.38,8.91-22.4,1.29-5.59.44-12.82,2.93-17.94,5.8-11.76,14-26,15.46-41h2.94c-.21.44-.41.82-.62,1.26.62.62,1.23,1.23,1.81,1.91,1.23-4.71,1.37-4.23,1.78-9.62h-4.78c-.48-4.78,5.22-21.23,6.55-21.9,1.78-1.58,5.26-11.12,7-12.61,1-2,5.22-13.11,5.22-13.11,3.24-6.36,6-16.48,8.84-17.4-.3-1.39-.61-2.72-1-4.08-4.23.9-4.26,4-7,5.54-10.75,6.11-15.12,12.89-21.7,22.91v3c-1.1.55-2.19,1-3.28,1.5-1.23,2.9,1.19,5.33-1,9.11-3.34,2.41-6.62,4.75-9.93,7.12-2.93,1.5-.07,3.91,0,7.12-2.18,1.65-2.39,1.07-2.8,3.53-2.35-.71-1.6-.87-3.79-1.06.17-1,.35-2,.52-3-3.93,2.54-2.46,8.55-1.44,12.68C271,96.7,254.76,117.25,231.18,152.74c-3.86,5.81-22,33.86-26.11,33.9.44,1.6-.24.32,1.19,2-18.29,19-24.88,32.59-37.95,51.23-2.63,3.74-12.46,19.23-12.46,19.23-1.2,2.27,0,.8-2.36.69-2.11,6.74-19.66,31-26.08,33.89-2.32,1.72-16,7.2-18.46,0-1.4,1.72-1.4,2.34-1.09,4.47-2.87-.55-35.5,21.55-38.61,26.23-3.17,4.85-2.66,7.25-5.9,11.57-4.17,2.54-8.33,5.1-12.46,7.63C43.62,345.25,35,354.91,33.72,359,28,362.45,19.25,362.3,20,371.14c0,0,9,6.23,16,2.56,3.82-2,13.1-8.57,18.4-10.87h4.7l4.17-6.44c4.78-2,11.81.19,19-2.54h.54v3.79c.75,3.86-16.82,22.39-21.3,27.58,3.08,2.34-9.86,14.42-10.1,14.71v.65s-17.1,18.77-19.56,21.16c-6.17,5.8-9.28,15.79-14.26,23C14.47,449.42,4,456.55,2.25,460.19c-1.13,2.37-1.36,8.06-1.19,11.49,13.62-1.54,14.37-18.56,22-21.13,1.5-.62.34-.62,2.35,1.26,2.12-5.26,8.54-4.76,13-8.29-2.11-1.73.14-2,1.74-3.21C47.92,434.78,62.46,408.77,71,409c2.29-11.11,15.87-12.17,16.66-26.34.75.45,1.6.84,2.32,1.27,3.31-7.38,11-9.58,13.1-17.89.34.24.75.43,1.13.65-.92-1.23-1-1.11-2.35-1.91v-.68c20.54-13.9,29.48-24.75,59.32-35.18,1.29,2,1.67,2.87,4.16,3.81,3,3.05,8-3.21,10.65-6.37a10.79,10.79,0,0,0,1.19.65c1.4.53,2.63,2.07,2.94,4.49,2.8-1.5,5.53-3,8.29-4.49l5.94,3.16c3.35-3.55,5.7-2,7.72-6.4,2.83,1.35,1.53.46,1.81,3.24,5.63-3.17,11.5,3.26,18.39,4.49.72,4.88-3.68,22-5.35,25.61v.57c1.57.27,3.13.44,4.74.63v3.89c1.13-.22,2.32-.42,3.55-.63-2.18,7.85-1,11.42,0,17.92,4.13,3.62,9.55,7,16,7.07.21.61.48,1.28.65,1.89-.65.43-1.19.9-1.84,1.31,2.8,3.62,5.6,7.24,8.33,10.86,2,2.69,3.75-.89,6.55.65,2.15,1.24,3.45,5.08,5.9,5.75,5.6,1.58,13-1.62,16.66,5.78.41-.2.68-.42,1.13-.61,7.78-1.2,18.56.7,24.88,2.52a16.81,16.81,0,0,0,3-5.71c2,.22,4,.39,5.9.61v-1.3h1.23c-1.7-2-6-2.68-8.94-1.92-.62-.21-1.23-.45-1.74-.65v-4.47c4.23-3,10.51-1.52,18.36-5.77.79,2,.92,1.62.58,3.85-.58,1.66.45.69-1.81,1.92v1.26a16.32,16.32,0,0,0,1.23,1.26c6.49-1.64,23.89-16,28.43-19.86,1.88-1.56,7.41-1.08,8.3-1.88,3.62-3.16,3.89-7.3,9.49-7.05-.35-4.18,3.58-12.13,3.58-12.13.65-3.55.34-3.45,2.94-3.25-.69-4.76.51-4,1.84-7.64-4.23.58-3.82-5.55-3-8.38h-7.17v-5.72c-6.11-10.36-20.92-6.48-23.11-10.27-.89.22-1.91.44-2.9.63v3.26c-1.16,1.91-.14,1-2.39,1.91v-2.59c-1.91,2.59-1.19,2.81-4.13,1.33-1,2.52.14,2.59-1.85,4.43-3,1.63-1.7-1.48-4.7.65-.62-.23-1.23-.47-1.81-.65-1.2-2.56.92-5.61,1.19-5.76-2.35-3.81-9.32-4-13.62-5.77-.24,1.64.55.34-.58,2-.82-.65-1.6-1.33-2.42-2l-1.13,3.19c-1.16-.63-2.39-1.23-3.58-1.88-3.59-2.13-13.07,2.05-19.56,2.56H284c-4-3.75-5.09-4.52-10.07-3.24-1-1.49-2-3-2.94-4.45-2.56.35-4.57.88-5.94,2.54-4-1.79-3.1-4.49-5.36-6.4-3.34-2.77-11.94,1.55-16-4.51-4.07-9.81,10.68-41.16,8.84-49.91-.72-3.79,1.43-8.57,4.16-13.5-9.49-13.16,38.71-31.92,48.06-37.09,13.75-7.66,27.61-15.54,41.48-23.52a39.76,39.76,0,0,0-3.73,5.6c-.14.58-.68.63,0,.63-5.63,6.69-12.46,14.27-17.07,22.26l1.37-.58c-1.06,3.07-1.23,3.21-3.52,3.48,1.54,3,3,6.06,4.58,9.11,4.06,1.3,3.2-1.91,6.14.72,2.77-2.77,6.65-5.6,10.41-5.72,1.16-8.41,13.28-20.14,19.83-22.15-.24.43-.51.78-.75,1.18a17.17,17.17,0,0,0,1.37,1.19c.51-2.37,1-4.71,1.57-7.06,16.48-6.73,29.86-9,56.18.18,3.72,1.27,4.67,4.63,9.45,5.62,25.43,5.17,71.2-29,78.17-41.2,4.64.28,6.65,1,8.15,3.79,6.11,11.78-23.58,41.11-24.47,42.36s-1.43,2.78-2.18,4.13l3.44.07c3.45,2,29.87-9.61,33.21-12.29,2.15-2,1.47-7,3.79-13.07l13,.37A6.78,6.78,0,0,1,547.45,185.44ZM208,193.72h1.19c-.78.65-1.57,1.3-2.39,1.91C207.25,195,207.66,194.37,208,193.72Zm-10.65,16c.65,2.07-1.3,1,0,3.19-.41.4-.79.86-1.2,1.3-.44-.44-.82-.9-1.19-1.3C195.75,211.89,196.6,210.84,197.39,209.74Zm-16,20.52h.54l.65,1.24c-.44.43-.85.89-1.19,1.25a8.67,8.67,0,0,1-1.23.65Zm-20.17,33.31c.54,1.09.58.1,0,1.23Zm-2.43,3.79a22.64,22.64,0,0,1,.62,2.56,5.88,5.88,0,0,1-.62,1.29c-.58-1.29-1.16-2.52-1.74-3.85Zm-12.46,26.3c-2.32,6.94-11.94,29-19.52,21.76H125c1-12.9,9.66-16.8,18.94-22.46h2.35Zm87.83-40.4c3.92,14-5.43,45.3-11.85,60.88-17.16-.62-32.56,1.65-48.67,3.87-1.84.24-21.6-3.79-23.14-5.82,6.24-12,21.64-34.66,32.08-42.27.48.55,7.17.75,8.88-.61,2-4.75,11.74-13.25,14.81-11.51.58-2.59,1.2-5.15,1.78-7.71,2.73-.68,4.5-.68,6.48.68,2.83-.36,2.32-.31,3.59,2.49,1.19-.18,2.35-.41,3.58-.61v-4.44c2.93-2.39,5.94-4.76,8.91-7.1a10.65,10.65,0,0,0,4.71,3.19c.3,4.39-.86,5.38,1.81,8.35C235.61,254,236.09,253.37,234.15,253.26Zm-34.44-2.49v-2.56c11.84-17,23.21-25.39,35-39.15.17,1.32.34,2.61.55,3.87,1.4-1.26,2.76-2.55,4.16-3.87v18c-7.13,5.7-16.76,6.89-24.95,12.15C209.67,243,204.69,246.9,199.71,250.77Zm43.93,83.86c11.74,2.8,56.66,8.09,60.44,6.4,2.46.5,13.69,3.35,15.4.65,3.72-.1,10.71,4.42,13.72,5.79,4.57,2,13.38,1.45,16.55,1.23.62,1.5,1.2,3,1.78,4.47-1.61,7.58-25.29,20.72-30.86,23.75-21.77,11.88-30.34,22.62-55.12,7-1.4.29-2.77.51-4.17.68-4.74-2.1-11-5.77-14.84-10.87-6.45-9-4.75-20.94-7.07-33.95C240.84,338,242.2,336.34,243.64,334.63Zm-.07-140.76c-17.45,19.68-37.72,41.68-55.13,61.34,1.51-13,17.28-25.45,20.18-37.74h4.77c2.16-5.75,5.16-8.54,7.69-12.81,1-3.45,2-6.88,2.93-10.29,5.36-5.34,32.77-54.49,38.13-59.85C262.41,140.49,252.37,165.3,243.57,193.87Z"/><path class="cls-2" d="M723.74,170.66c-2.69,3.64-5.46,7.31-8.26,10.91l0,.61,6.71,2.17c4.92-3.33,10.31-5,14.44-10,3.55.58,3.17.65,4.61,2.63,1-.14,1.84-.27,2.78-.44,4.45-1.2,5.89-15.19,7.29-19.58,5.25-2,12-4,18.12-4.38-1,1.55-2,3.1-3,4.61.17.2.41.42.61.64,3.34-1.26,26.93,4.49,28.13,3,2.25.51,4.5,1.06,6.72,1.52,1.09,8.18,5.46,6.5,6.08,12.92,10.88-3.24,17.56-8.7,26.91-12.92,4.4-1.91,6.33.26,11.11-1.11,3.31-2,6.87-11.67,10.27-13.68a19.94,19.94,0,0,1,2,1.91l2.23-2.87c17.24,1.79,19.25,21,28.67,26.52,6,3.48,17.53,1.18,23.76,3.69,2.18-2.51,3.82-2.67,7.08-2.6-.19-3.68,10.33-5.77,15.51-5.73a12.68,12.68,0,0,0,1.28.68c-6.81,7.15-11.4,14.13-18,22.31a18.66,18.66,0,0,0,5.16,5.06c1.76,4.61,12.37,7.31,16.76,7.31,6.88,0,15-2,22-3.18,0,.33.11.65.11,1a21.64,21.64,0,0,0,1.88-1.42c3-.75,5.58-2.47,8.76-3.55,2.34-.82,2.51-.43,4.38-2.15a15,15,0,0,1,1.92.27c3.44-4.71,10.88-6.72,12.39-10.71l1.36.11c-.8-2.5-1.36-2.54-3.55-3.63a11.94,11.94,0,0,0-.75-1.26c-4.49-2.92-3.24,2.86-4.78,4.78-1.57,2.11-3.07,1-4.91,1.87-.89.36-1.57-.25-2.56.29-.41.36.2,2.07-.38,2.6-3.22,3.33-4,.39-8.4.46-4.19,0-7.4,2.59-11,3.28-6.18,1.17-16.66-.41-22.67-2.6-3-6.79,10.91-15.46,15.26-18.94q8.3-7,16.76-14c3.52-1.44,32.05,1.37,34.06,3,2.5,2.11-3.2,12.93-6.17,14.33l1.47,5.74,3.37.2c2.56-3.72,9.07-6.88,11.71-11.35,1.83-.65.27-12.78-.83-17.35,11.79-5.67,22.4-16.05,29.52-22.29.32,3.89,13.4-5.8,14.18-5.21,7.73-1.17,20.07-6,28-8.07,9.25-2.39,14.89,0,22.76-2.92,1.33,1.62.69.6.55,2.48,4.33-1.33,8.84-3.43,12.73-4.73-.41-1.62-.68-3.22-1-4.83-2.56-.58-5-1.09-7.51-1.62-12.49,6.16-34.06,5.12-46.57,8.79-14.18,4.16-24.36,10.39-36.75,15.36-7.44,2.95-36.72,2.23-42.66,1.82-1.79-.53-3.94,1.3-5,3.33-4.44-2-11.13-2.76-11.81,2.94-2.46,2.33-3.28,2.8-1.08,4.74-1.72,3.4-3.46,9-9.36,6.66.19.82.34,1.64.51,2.42-9.88-.78-17.44,8.64-28.09,10.43-2.41,1.42-1.79.49-4.13-.84-2.49,1.44-1.61,3.14-4.37,4-10.51-5.53-26.21-21.95-41.23-23-.27-2.71-.5-4.57-2.36-6.09-8.46-10-37.82,18.87-42.32,20.82-1.93-2.3-1.68-2.54-6-3.26.29-1,.62-2,.93-2.95-2-1.35-3.95-2.6-5.89-3.91-5.94,2.66-11.73,3.82-14.2,6.42-4.3-1.78-8.3-2.6-9.76-7.75-16.35,3.79-23.71-3.76-41.7-15.63-11.65.13-30.39,34.37-35.65,42.52A19.81,19.81,0,0,0,723.74,170.66Z"/></g></g></g></svg>